<?xml version="1.0" encoding="utf-8"?>
<!-- Generator: Adobe Illustrator 24.0.2, SVG Export Plug-In . SVG Version: 6.00 Build 0)  -->
<!DOCTYPE svg PUBLIC "-//W3C//DTD SVG 1.0//EN" "http://www.w3.org/TR/2001/REC-SVG-20010904/DTD/svg10.dtd" [
	<!ENTITY ns_extend "http://ns.adobe.com/Extensibility/1.0/">
	<!ENTITY ns_ai "http://ns.adobe.com/AdobeIllustrator/10.0/">
	<!ENTITY ns_graphs "http://ns.adobe.com/Graphs/1.0/">
	<!ENTITY ns_vars "http://ns.adobe.com/Variables/1.0/">
	<!ENTITY ns_imrep "http://ns.adobe.com/ImageReplacement/1.0/">
	<!ENTITY ns_sfw "http://ns.adobe.com/SaveForWeb/1.0/">
	<!ENTITY ns_custom "http://ns.adobe.com/GenericCustomNamespace/1.0/">
	<!ENTITY ns_adobe_xpath "http://ns.adobe.com/XPath/1.0/">
]>
<svg version="1.0" id="Слой_1" xmlns:x="&ns_extend;" xmlns:i="&ns_ai;" xmlns:graph="&ns_graphs;"
	 xmlns="http://www.w3.org/2000/svg" xmlns:xlink="http://www.w3.org/1999/xlink" x="0px" y="0px" width="32px" height="13px"
	 viewBox="0 0 32 13" enable-background="new 0 0 32 13" xml:space="preserve">
<metadata>
	<sfw  xmlns="&ns_sfw;">
		<slices></slices>
		<sliceSourceBounds  bottomLeftOrigin="true" height="16383" width="16383" x="-8175" y="-8198"></sliceSourceBounds>
	</sfw>
</metadata>
<path fill="#333F50" stroke="#D2D2D2" stroke-width="0.25" stroke-miterlimit="10" d="M6.6692953,0.473495h18.6712379
	c3.3153553,0,6.0029831,2.6876278,6.0029831,6.002985v0.0000119c0,3.3153572-2.6876278,6.002985-6.0029831,6.002985H6.6692953
	c-3.3153567,0-6.0029845-2.6876278-6.0029845-6.002985V6.47648C0.6663106,3.1611228,3.3539386,0.473495,6.6692953,0.473495z"/>
<path fill="#333B47" d="M6.6424661,0.674866c0.4223957,1.7701552,1.1466136,3.0249383,1.8723855,3.9216688
	c3.867259,4.7782078,12.6713114,5.4354973,22.0707855,1.903471c0,0.3879547-0.0387573,2.4516029-1.7061405,4.118988
	c-1.0541401,1.054141-2.5104218,1.7061405-4.118988,1.7061405H6.6424661c-3.2171297,0-5.8251286-2.6079988-5.8251286-5.8251286
	V6.4999943C0.8173378,3.2828648,3.4253364,0.674866,6.6424661,0.674866z"/>
<circle fill="none" stroke="#E1DCE1" stroke-width="0.5" stroke-miterlimit="10" cx="16.0049133" cy="6.4764857" r="4.6782179"/>
<path fill="#FFE159" d="M9.0011063,11.6635284l-0.8547277-1.310215c-0.070631-0.1082706-0.0389748-0.2534008,0.0703278-0.3224239
	l3.8821583-2.4515219c0.0485697-0.0306706,0.0840111-0.0782938,0.0994434-0.1336241l0.1417046-0.5080328
	c0.0172462-0.061831,0.0593767-0.1137333,0.1163397-0.1433249L15.9253054,4.9923
	c0.0663176-0.0344515,0.1119413-0.0987816,0.1225233-0.1727614l0.0164909-0.1153026
	c0.010603-0.0741248,0.0563831-0.1385527,0.1228924-0.1729527l1.1292286-0.5840578
	c0.0504475-0.0260916,0.1124935-0.0064092,0.1386757,0.0439904v0.0000002
	c0.0263443,0.0507131,0.0889492,0.0702701,0.1394768,0.043571l1.867466-0.9867735
	c0.0326328-0.0172429,0.0689125-0.0264392,0.1058197-0.0268219l0.315918-0.0032778
	c0.0363579-0.0003777,0.0721169-0.0093083,0.1043835-0.0260704l1.0810757-0.5616081
	c0.0443039-0.0230157,0.0948582-0.0311012,0.1441326-0.0230522l0.6307678,0.1030409
	c0.0492744,0.008049,0.0998287-0.0000367,0.1441326-0.0230525l0.8184242-0.4251626
	c0.0711021-0.036937,0.1180668-0.107995,0.1241817-0.1878859l0.014534-0.1899388
	c0.0002422-0.0915804-0.0034485-0.1906871-0.0130348-0.2961632c-0.0065327-0.0718718-0.0152092-0.140161-0.0253124-0.204596
	c0.2909851-0.15061,0.3601265-0.2049851,0.3758621-0.1639247c0.0140038,0.018824,0.2997494,0.6024568,0.2997494,0.6024568
	c0.0532074,0.0868294,0.0344563,0.0871195,0.1326542,0.0468605l0.0423107-0.0185176
	c0.0533009,0.0589042,0.1283855,0.2246666,0.1434536,0.2682l-0.118391,0.0668471
	c-0.0350208-0.0007085,0.0113106,0.1364648,0.0292645,0.3105111c-0.1455917,0.0693767-0.2987709,0.1218529-0.3718719,0.1502149
	c-0.0326939,0.0156209-0.1738796-0.0988104-0.1774292-0.1012053c-0.0125828-0.0084913-0.0191612-0.0130188-0.0191727-0.0130262
	c-0.0106354-0.0073211-0.0119514-0.0083857-0.0152721-0.0103686c-0.0000114-0.0000069-0.0105648-0.0082107-0.0265827-0.0109682
	c-0.0665779-0.0114601-0.1278706,0.0184493-0.1701908,0.0465302l-0.8744392,0.4542625
	c-0.0444775,0.0231056-0.0802612,0.0600135-0.1019802,0.1051846l-0.1713638,0.3564098
	c-0.0054798,0.0113933-0.0171547,0.0797408-0.0488358,0.0992408c-0.090704,0.0558283-0.2875996,0.1412771-0.3103905,0.1423426
	l-0.1567154-0.0184758c-0.0334816,0.0015647-0.0662251,0.0103776-0.0959702,0.0258293l-0.8900986,0.4623981
	c-0.0677052,0.035172-0.1139297,0.1012325-0.1237736,0.1768904L20.2570477,4.167655
	c-0.0098438,0.0756578-0.0560684,0.1417184-0.1237717,0.1768904L16.6788368,6.13908
	c-0.1214809,0.0631075-0.1621952,0.2165112-0.0878963,0.3314881c0.178236,0.2758217,0.5042343,0.6761904,1.0420017,0.9647026
	c0.4583874,0.245924,0.8945789,0.3161216,1.196106,0.3315592c0.1396923,0.0071526,0.2396278,0.1373496,0.213253,0.2747159
	l-0.1440029,0.7499962c-0.0230885,0.1202517-0.1350079,0.2021847-0.2564316,0.1863871
	c-0.418993-0.0545139-1.0277367-0.1914005-1.6757717-0.5517073c-0.6087475-0.3384619-1.0283699-0.7496424-1.2916851-1.0587664
	c-0.0750875-0.088151-0.2038765-0.1056023-0.300869-0.042347c-0.3056726,0.1993504-0.9316273,0.6075754-1.1924028,0.7776432
	c-0.0729246,0.0475597-0.1123161,0.1315317-0.1030941,0.2181053l0.1254835,1.1779127
	c0.0140181,0.1315918-0.0848656,0.2481651-0.2169819,0.2557964l-0.527545,0.0304718
	c-0.1302748,0.0075254-0.2410526-0.0939922-0.2448997-0.2244272l-0.0296354-1.0046196
	c-0.002696-0.0913887-0.0588951-0.1726427-0.1434546-0.2074108l-0.1956892-0.0804605
	c-0.0881939-0.0362625-0.1895981-0.0147734-0.2555037,0.0541439l-3.2272863,3.3747969
	C9.2593842,11.8049231,9.0826492,11.7885256,9.0011063,11.6635284z"/>
<path fill="#333F50" d="M19.4491997,8.2056675c-0.0668468-0.0708542-0.1704788-0.0921984-0.2611198-0.0537806l-0.2011204,0.0852442
	c-0.0869064,0.0368357-0.1452007,0.1216106-0.1488075,0.2164011l-0.0396404,1.0420122
	c-0.005146,0.1352901-0.1195164,0.2415829-0.25284,0.2349854l-0.5398941-0.0267162
	c-0.1352081-0.006691-0.2353821-0.1266565-0.2198105-0.2632399l0.1393852-1.2225952
	c0.0102463-0.0898571-0.0293121-0.1765671-0.1035442-0.2252092C17.5563622,7.81883,16.919199,7.4013138,16.6080513,7.1974263
	c-0.0987301-0.0646954-0.2307644-0.0454073-0.308466,0.0466952c-0.27248,0.3229814-0.7059536,0.7532363-1.332407,1.1098366
	c-0.6668863,0.3796148-1.2914715,0.5271912-1.7210007,0.5875959c-0.1244774,0.0175047-0.2383184-0.0664206-0.260848-0.1909008
	L12.84482,7.9742789c-0.0257359-0.1421976,0.077796-0.2781296,0.2208986-0.286839
	c0.3088903-0.0187979,0.756176-0.0956249,1.2278128-0.3548765c0.5533133-0.3041472,0.8908224-0.7223248,1.0758781-1.0099864
	c0.0771418-0.1199126,0.0368719-0.2786074-0.0869331-0.3429227l-2.9964266-1.556603
	c-0.0690012-0.0358453,1.6499128-1.1538723,1.6499128-1.1538723c0.0328836,0.0170829,0.4282999,0.5369072,0.4282999,0.5369072
	c0.0514898,0.0272179,0.1157742,0.0063593,0.143219-0.0464714V3.7596147
	c0.027276-0.0525041,0.0909901-0.0734878,0.1424026-0.0468986l1.1508636,0.5951886
	c0.0677834,0.0350556,0.1140633,0.1014409,0.1242332,0.178206l0.0158205,0.1194105
	c0.0139112,0.034687,0.0273743,0.0695434,0.04039,0.1045694c0.0183878,0.0494823,0.0358772,0.0992928,0.0524712,0.1494317
	c1.1629581,0.615026,2.3259182,1.2300525,3.4888763,1.8450785c0.044714-0.045279,0.1099072-0.0526977,0.15172-0.0233989
	c0.0401363,0.0281239,0.0432129,0.0792065,0.0435371,0.0864458l0.1403961,0.5254922
	c0.0152912,0.0572319,0.0511398,0.1062865,0.1005878,0.137641c0,0-0.1927509,0.5036917-0.2660751,0.6166158L19.4491997,8.2056675z"
	/>
<path fill="#333F50" d="M19.3393917,8.4301786c-0.0640678-0.0708542-0.163393-0.0921984-0.250267-0.0537806l-0.1927624,0.0852442
	c-0.0025902,0.0342722-0.0055847,0.068511-0.0089855,0.1027145c-0.0033264,0.0334597-0.00704,0.0668755-0.0111389,0.1002474
	C18.865099,9.02001,18.85396,9.3754148,18.8428211,9.7308207c-0.0049324,0.1352911-0.2416229,0.2308178-0.3694077,0.2242203
	l-0.5174561-0.0267162c-0.0331497-0.0076962-0.0983715-0.0276699-0.1595306-0.0829105
	c-0.0836067-0.0755167-0.1058254-0.1683474-0.1120205-0.2006121c0.0482674-0.3972769,0.0965347-0.7945547,0.1448021-1.1918316
	c0.0018425-0.0619106-0.0048618-0.1489792-0.0495739-0.2356901c-0.0736122-0.1427603-0.1839046-0.1559-0.4071102-0.2878251
	c-0.0942535-0.0557089-0.3149033-0.2063117-0.7562046-0.5075178c-0.0121346-0.0082822-0.0425587-0.0275331-0.0858765-0.0349622
	c-0.076046-0.0130424-0.1563206,0.015553-0.2097702,0.0816574c-0.2611561,0.3229814-0.6766148,0.7532368-1.2770338,1.1098366
	c-0.6391706,0.3796148-1.2377987,0.5271912-1.649477,0.5875959c-0.1193047,0.0175047-0.2284145-0.0664196-0.2500076-0.1909008
	l-0.1346703-0.7763748c-0.0246658-0.1421976,0.074563-0.2781291,0.2117186-0.2868385
	c0.2960529-0.0187979,0.7247505-0.0956249,1.1767864-0.3548765c0.5303173-0.3041472,0.8537998-0.7223248,1.0311651-1.0099864
	c0.0739355-0.1199126,0.0353394-0.2786074-0.0833206-0.3429227l-2.8718977-1.556603
	c-0.0661335-0.0358453,1.5813437-1.153872,1.5813437-1.153872c0.031517,0.0170827,0.4105005,0.5369072,0.4105005,0.5369072
	c0.0493498,0.0272179,0.1109629,0.0063591,0.1372671-0.0464716V3.9841259
	c0.0261421-0.0525038,0.0872087-0.0734875,0.1364851-0.0468986l1.103034,0.5951886
	c0.0649672,0.0350561,0.1093225,0.1014409,0.1190701,0.178206L15.9768,4.8300323
	c0.0097284,0.0766149,0.0539312,0.1429,0.1187105,0.1780109L19.483923,6.844615
	c0.0556412,0.030158,0.0965271,0.0835881,0.1129036,0.1475439l0.1345615,0.5254922
	c0.0146561,0.0572319,0.049015,0.1062865,0.0964088,0.137641c0,0-0.184742,0.5036912-0.2550201,0.6166158L19.3393917,8.4301786z"/>
<path fill="#FFE159" d="M22.647295,11.6970606l-3.2272873-3.3747969c-0.0659046-0.0689173-0.1673088-0.0904064-0.2555027-0.0541439
	l-0.1956882,0.0804605c-0.0845604,0.0347681-0.1407585,0.1160221-0.1434555,0.2074108l-0.0296345,1.0046196
	c-0.0038471,0.130435-0.1146259,0.2319527-0.2449017,0.2244272l-0.527544-0.0304718
	c-0.1321163-0.0076313-0.230999-0.1242046-0.2169819-0.2557964l0.1254845-1.1779127
	c0.009222-0.0865736-0.0301704-0.1705456-0.103096-0.2181053c-0.2607746-0.1700678-0.8867283-0.5782928-1.1924019-0.7776432
	c-0.0969925-0.0632553-0.2257805-0.045804-0.300869,0.042347c-0.2633152,0.309124-0.6829376,0.7203045-1.2916842,1.0587664
	c-0.648037,0.3603067-1.2567797,0.4971933-1.6757727,0.5517073c-0.1214237,0.0157976-0.2333431-0.0661354-0.2564325-0.1863871
	l-0.144001-0.7499962c-0.0263748-0.1373663,0.0735598-0.2675633,0.2132511-0.2747159
	c0.301528-0.0154376,0.7377205-0.0856352,1.196106-0.3315592c0.5377674-0.2885122,0.8637667-0.6888809,1.0420036-0.9647026
	c0.0742989-0.1149769,0.0335846-0.2683806-0.0878963-0.3314881l-3.4544392-1.7945347
	c-0.0677052-0.035172-0.1139278-0.1012325-0.1237726-0.1768904l-0.0008507-0.0065374
	c-0.0098448-0.0756578-0.0560675-0.1417184-0.1237726-0.1768904l-0.8900995-0.4623981
	c-0.0297441-0.0154517-0.0624886-0.0242646-0.0959702-0.0258293l-0.1567154,0.0184758
	c-0.0227909-0.0010655-0.2196865-0.0865142-0.3103905-0.1423426c-0.0316811-0.0195-0.0433569-0.0878475-0.0488348-0.0992408
	L9.9547806,2.9164824c-0.021719-0.045171-0.0575018-0.0820789-0.1019802-0.1051846L8.9783611,2.3570354
	C8.9360418,2.3289545,8.8747482,2.2990451,8.8081713,2.3105052C8.7921515,2.3132627,8.781599,2.3214664,8.7815876,2.3214734
	C8.7782669,2.3234563,8.7769518,2.3245208,8.7663155,2.3318419C8.766304,2.3318493,8.7597265,2.3363769,8.7471428,2.3448682
	C8.7435942,2.3472631,8.6024084,2.4616945,8.5697145,2.4460735c-0.073101-0.028362-0.2262802-0.0808382-0.3718719-0.1502149
	C8.2157965,2.1218123,8.2621269,1.984639,8.2271061,1.9853475L8.108716,1.9185004
	c0.0150671-0.0435334,0.0901527-0.2092959,0.1434526-0.2682L8.2944794,1.668818
	c0.0981979,0.040259,0.0794468,0.039969,0.1326551-0.0468605c0,0,0.2857447-0.5836328,0.2997494-0.6024568
	c0.0157356-0.0410604,0.0848761,0.0133147,0.3758612,0.1639247c-0.0101032,0.064435-0.0187798,0.1327243-0.0253124,0.204596
	C9.0678463,1.4934976,9.0641556,1.5926043,9.0643978,1.6841847l0.014535,0.1899388
	c0.006114,0.0798908,0.0530787,0.1509489,0.1241808,0.1878859l0.8184242,0.4251626
	c0.0443039,0.0230157,0.0948591,0.0311015,0.1441326,0.0230525l0.6307688-0.1030409
	c0.0492735-0.008049,0.0998278,0.0000365,0.1441326,0.0230522l1.0810757,0.5616081
	c0.0322666,0.016762,0.0680246,0.0256927,0.1043835,0.0260704l0.315918,0.0032778
	c0.0369053,0.0003827,0.0731859,0.0095789,0.1058187,0.0268219l1.867466,0.9867735
	c0.0505276,0.0266991,0.1131315,0.0071421,0.1394768-0.043571V3.9912159
	c0.0261822-0.0503995,0.0882292-0.0700819,0.1386757-0.0439904l1.1292295,0.5840578
	c0.0665092,0.0344,0.1122885,0.0988278,0.1228905,0.1729527l0.0164928,0.1153026
	c0.010581,0.0739799,0.0562048,0.13831,0.1225233,0.1727614l3.4689522,1.8020859
	c0.056963,0.0295916,0.0990944,0.0814939,0.1163406,0.1433249l0.1417027,0.5080328
	c0.0154343,0.0553303,0.0508747,0.1029534,0.0994453,0.1336241l3.8821583,2.4515219
	c0.1093025,0.0690231,0.1409588,0.2141533,0.0703278,0.3224239l-0.8547287,1.310215
	C22.9271774,11.7885256,22.7504425,11.8049231,22.647295,11.6970606z"/>
<g>
	<g>
		<g>
			<path fill="#E4DFE1" d="M5.352181,7.2879324c0.0384946,0.0927553-0.0094037,0.1474829-0.1064415,0.1216168l0,0
				C4.7661009,7.2816997,4.2542644,7.3980508,3.8770304,7.7206855l0,0C3.8007107,7.7859592,3.73386,7.7573166,3.7284737,7.6570354
				l0,0C3.7018495,7.1613646,3.4330266,6.7105331,3.0096111,6.4514618l0,0
				C2.923948,6.3990483,2.930531,6.3266187,3.0242395,6.2905073l0,0c0.4631839-0.1784921,0.8088789-0.5734725,0.9244277-1.0562215
				l0,0C3.9720442,5.1366186,4.042963,5.1204972,4.1062651,5.1984606l0,0
				C4.4191523,5.583817,4.9016266,5.7905374,5.3964548,5.7512527l0,0c0.100111-0.0079474,0.1373587,0.0545187,0.0827723,0.138814
				l0,0C5.2094188,6.3067217,5.1619091,6.8294621,5.352181,7.2879324L5.352181,7.2879324z"/>
		</g>
		<g>
			<path fill="#E4DFE1" d="M4.7920513,7.7637839c-0.018383,0.0987287-0.0883908,0.118434-0.1555734,0.0437894l0,0
				C4.3044081,7.4386177,3.8120503,7.2566881,3.3198583,7.3210731l0,0C3.2202809,7.3340988,3.1799064,7.2736068,3.2301373,7.186646
				l0,0c0.2482822-0.429831,0.2691607-0.9543104,0.0558314-1.4025168l0,0
				C3.2428091,5.6934505,3.2878642,5.6363592,3.3860912,5.6572595l0,0c0.4855165,0.1033053,0.990778-0.0389113,1.3511252-0.3803029
				l0,0C4.8101201,5.2078881,4.8783398,5.2330961,4.8888164,5.332974l0,0
				c0.051784,0.4936767,0.343174,0.9302616,0.7792106,1.1674767l0,0c0.0882163,0.0479918,0.0853233,0.1206622-0.0064287,0.16149l0,0
				C5.2080855,6.8637447,4.8829131,7.2757854,4.7920513,7.7637839L4.7920513,7.7637839z"/>
		</g>
	</g>
</g>
<g>
	<g>
		<g>
			<path fill="#E4DFE1" d="M28.4349709,7.227334c0.0384941,0.0927553-0.0094032,0.1474829-0.1064415,0.1216168l0,0
				c-0.4796391-0.1278496-0.9914761-0.0114985-1.3687096,0.3111362l0,0
				c-0.0763187,0.0652738-0.1431694,0.0366311-0.1485558-0.0636501l0,0
				c-0.0266247-0.4956708-0.2954483-0.9465022-0.7188625-1.2055731l0,0
				c-0.0856628-0.0524139-0.0790806-0.1248436,0.0146275-0.160955l0,0c0.4631844-0.1784921,0.8088799-0.5734725,0.9244289-1.0562215
				l0,0c0.0233765-0.0976672,0.0942955-0.1137886,0.1575966-0.0358253l0,0
				c0.3128872,0.3853569,0.7953625,0.5920768,1.2901897,0.5527921l0,0c0.100111-0.0079474,0.1373596,0.0545187,0.0827732,0.138814
				l0,0C28.2922077,6.2461238,28.2446995,6.7688642,28.4349709,7.227334L28.4349709,7.227334z"/>
		</g>
		<g>
			<path fill="#E4DFE1" d="M27.8748417,7.7031856c-0.018383,0.0987291-0.0883904,0.118434-0.1555729,0.0437894l0,0
				c-0.3320713-0.3689556-0.8244286-0.5508852-1.3166199-0.4865003l0,0
				c-0.0995789,0.0130258-0.1399517-0.0474663-0.0897217-0.1344271l0,0
				c0.2482815-0.4298306,0.2691612-0.9543104,0.0558319-1.4025168l0,0
				c-0.0431595-0.0906782,0.0018959-0.1477699,0.1001225-0.1268697l0,0c0.4855156,0.1033053,0.990778-0.0389113,1.3511257-0.3803029
				l0,0c0.0729027-0.0690684,0.1411228-0.0438604,0.1515999,0.0560174l0,0
				c0.0517826,0.4936767,0.343174,0.9302616,0.7792091,1.1674767l0,0c0.0882168,0.0479918,0.0853233,0.1206622-0.0064278,0.1614904
				l0,0C28.2908764,6.8031464,27.965704,7.2151871,27.8748417,7.7031856L27.8748417,7.7031856z"/>
		</g>
	</g>
</g>
<path fill="#333F50" d="M7.8718419,1.9035105"/>
</svg>
