<?xml version="1.0" encoding="utf-8"?>
<!-- Generator: Adobe Illustrator 24.0.2, SVG Export Plug-In . SVG Version: 6.00 Build 0)  -->
<!DOCTYPE svg PUBLIC "-//W3C//DTD SVG 1.0//EN" "http://www.w3.org/TR/2001/REC-SVG-20010904/DTD/svg10.dtd" [
	<!ENTITY ns_extend "http://ns.adobe.com/Extensibility/1.0/">
	<!ENTITY ns_ai "http://ns.adobe.com/AdobeIllustrator/10.0/">
	<!ENTITY ns_graphs "http://ns.adobe.com/Graphs/1.0/">
	<!ENTITY ns_vars "http://ns.adobe.com/Variables/1.0/">
	<!ENTITY ns_imrep "http://ns.adobe.com/ImageReplacement/1.0/">
	<!ENTITY ns_sfw "http://ns.adobe.com/SaveForWeb/1.0/">
	<!ENTITY ns_custom "http://ns.adobe.com/GenericCustomNamespace/1.0/">
	<!ENTITY ns_adobe_xpath "http://ns.adobe.com/XPath/1.0/">
]>
<svg version="1.0" id="Слой_1" xmlns:x="&ns_extend;" xmlns:i="&ns_ai;" xmlns:graph="&ns_graphs;"
	 xmlns="http://www.w3.org/2000/svg" xmlns:xlink="http://www.w3.org/1999/xlink" x="0px" y="0px" width="32px" height="13px"
	 viewBox="0 0 32 13" enable-background="new 0 0 32 13" xml:space="preserve">
<metadata>
	<sfw  xmlns="&ns_sfw;">
		<slices></slices>
		<sliceSourceBounds  bottomLeftOrigin="true" height="16383" width="16383" x="-8175" y="-8198"></sliceSourceBounds>
	</sfw>
</metadata>
<path fill="#110C10" stroke="#FFE159" stroke-width="0.25" stroke-miterlimit="10" d="M6.6692953,0.473495h18.6712379
	c3.3153553,0,6.0029831,2.6876278,6.0029831,6.002985v0.0000119c0,3.3153572-2.6876278,6.002985-6.0029831,6.002985H6.6692953
	c-3.3153567,0-6.0029845-2.6876278-6.0029845-6.002985V6.47648C0.6663106,3.1611228,3.3539386,0.473495,6.6692953,0.473495z"/>
<path fill="#181317" d="M6.6424661,0.674866C6.5367432,1.6867747,6.5544348,2.9382977,7.2738495,3.4144616
	c0.5442233,0.3602087,1.1168871,0.0297425,2.1345663,0.0706868C10.9604568,3.5475919,12.0999107,4.4156442,12.75,4.9108911
	c2.2372341,1.7043562,2.2631826,3.9490733,3.4336624,3.9822974c0.3431892,0.0097418,0.8557129-0.168623,1.5033607-1.1384587
	c1.8659573,1.0894952,3.6180172,2.115519,4.9227772,2.9183125c0.4679184,0.2879009,0.8783092,0.5470915,1.2157955,0.7702036
	c0.8333702,0.5509415,1.2221889,0.8818884,0.9349136,0.8818884H6.6424661c-3.2171297,0-5.8251286-2.6079988-5.8251286-5.8251286
	V6.4999943C0.8173378,3.2828648,3.4253364,0.674866,6.6424661,0.674866z"/>
<path fill="#110C10" d="M6.4338121,6.2698021C6.3788619,6.7957506,6.3880572,7.4462409,6.7619796,7.6937318
	c0.2828646,0.1872215,0.580512,0.0154586,1.1094599,0.0367398c0.8066878,0.0324554,1.3989291,0.483634,1.7368188,0.7410431
	c1.1628227,0.8858538,1.1763096,2.0525665,1.7846766,2.0698347c0.1783762,0.0050631,0.4447651-0.0876436,0.7813854-0.5917244
	c0.9698486,0.5662756,1.880497,1.0995607,2.5586586,1.516819c0.2432051,0.1496391,0.4565096,0.2843561,0.6319208,0.400321
	c0.4331512,0.2863569,0.6352434,0.4583693,0.4859295,0.4583693h-9.417017c-1.6721325,0-3.0276632-1.3555307-3.0276632-3.0276632
	V9.2974653C3.4061489,7.6253328,4.7616796,6.2698021,6.4338121,6.2698021z"/>
<path fill="#181317" d="M25.9286613,8.3663549c0.0683727-0.6682081,0.0549335-1.4944358-0.4206924-1.807786
	c-0.3598022-0.2370434-0.7374096-0.0180645-1.4093361-0.0436645c-1.0247421-0.039041-1.7782269-0.6105242-2.2081127-0.9365706
	c-1.479414-1.1220641-1.4997025-2.6039848-2.2724972-2.6242726c-0.2265873-0.0059488-0.564703,0.1125283-0.9909153,0.7537229
	c-1.2334328-0.7166572-2.3915825-1.3915708-3.2541113-1.9197372c-0.3093233-0.1894131-0.5806274-0.3599528-0.8037491-0.5067762
	c-0.5509644-0.3625582-0.8081274-0.5805012-0.6184683-0.5809054l11.9614906-0.0254905
	c2.1239414-0.0045263,3.8494053,1.7135993,3.8539314,3.8375411v0.0000076
	C29.7707272,6.6363649,28.0526028,8.3618288,25.9286613,8.3663549z"/>
<path fill="#FFE159" d="M4.8739533,3.8100209C4.6890779,3.5006521,4.2561221,3.4503021,4.0129843,3.7163317
	C3.5477533,4.2253637,2.94315,5.117835,2.8958304,6.3583183C2.8446949,7.6988406,3.473206,8.6893663,3.9684041,9.2562342
	c0.2628725,0.3009195,0.7459543,0.2528315,0.9611881-0.0838118L4.980309,9.0709963
	c0.1050439-0.2100735,0.0660791-0.4662266-0.1039333-0.6282768C4.507638,8.0912504,3.9765143,7.415658,3.9702761,6.4361768
	C3.9668119,5.8922706,4.1263833,5.4404192,4.3272595,5.087985c0.152554-0.267653,0.3289299-0.4779668,0.4758072-0.6277142
	c0.1699486-0.1732697,0.1953874-0.4419117,0.0708871-0.650249L4.8739533,3.8100209z"/>
<path fill="#FFE159" d="M27.0211658,3.7900209c0.1736908-0.3093688,0.580452-0.3597188,0.8088799-0.0936892
	c0.4370842,0.509032,1.0051079,1.4015033,1.0495644,2.6419866c0.0480423,1.3405223-0.5424442,2.3310485-1.0076809,2.8979163
	c-0.2469692,0.3009195-0.7008228,0.2528315-0.9030342-0.0838118l-0.0476494-0.1014261
	c-0.0986881-0.2100735-0.0620804-0.4662266,0.0976448-0.6282768c0.3464279-0.351469,0.8454189-1.0270619,0.8512802-2.0065432
	c0.0032539-0.5439062-0.1466637-0.9957576-0.3353863-1.3481917c-0.1433239-0.267653-0.3090286-0.4779668-0.4470196-0.6277142
	c-0.1596661-0.1732697-0.183567-0.4419117-0.0665989-0.650249V3.7900209z"/>
<path fill="#E4C950" d="M15.6430588,11.0028906c-0.3884678-0.2008944-0.8050051-0.4017992-1.2492752-0.5975685
	c-0.5030022-0.2216511-0.9873152-0.412817-1.4472179-0.5781155c0.0324717-0.0445747,0.0743494-0.1132345,0.1019869-0.2048082
	c0.0387001-0.1282291,0.0305758-0.2387552,0.0211544-0.3010969c-0.022583,0.0619993-0.0706692,0.1687174-0.1707516,0.2698574
	c-0.0863819,0.0872927-0.1762295,0.1347904-0.2338972,0.1597662c-0.0827913-0.0011301-0.1876297-0.0104704-0.3050642-0.0408239
	C12.1922722,9.66675,12.0636806,9.5972929,11.9779816,9.541501c0.0524511-0.0260105,0.1853485-0.1006699,0.2750559-0.2601881
	c0.0742464-0.1320248,0.0820131-0.2565746,0.0818548-0.3158979c-0.0520563,0.0690088-0.1413698,0.1692781-0.2787294,0.253252
	c-0.1919527,0.1173496-0.3764896,0.1409826-0.4720135,0.1463823c-0.0819397-0.0184975-0.1798601-0.0479193-0.2854757-0.095952
	c-0.1542368-0.0701447-0.2711163-0.1555271-0.3525906-0.2257128c0.184576-0.0579853,0.4012442-0.1431599,0.631196-0.2706079
	c0.1411819-0.0782471,0.2648287-0.159936,0.3715096-0.2386999c-0.190732,0.0592604-0.4136076,0.1151705-0.6648369,0.1545677
	c-0.2082186,0.0326509-0.4006042,0.0484228-0.5725183,0.0540628c-0.0864429-0.0227509-0.2163601-0.0684042-0.350523-0.1647167
	c-0.1769056-0.126997-0.2730589-0.2788038-0.3193674-0.3654747c0.189765,0.0205841,0.418973,0.0296307,0.6769066,0.0067663
	c0.1689939-0.0149803,0.3219194-0.0411406,0.4563942-0.0715828c-0.1970425-0.0115404-0.482583-0.0504961-0.8031158-0.1757841
	c-0.3052406-0.1193109-0.5330153-0.274229-0.6834431-0.3943958C9.6560736,7.4802308,9.6231594,7.3499846,9.6109171,7.1939402
	C9.5990095,7.04216,9.6102448,6.9116607,9.6260357,6.8121781c0.3098135,0.2250953,0.7606888,0.499886,1.3490314,0.7002735
	c0.8389091,0.2857294,1.5753155,0.2900801,2.0271702,0.2564297c0.1028862,0.2017579,0.355835,0.6276307,0.8633814,0.9312901
	c0.3073893,0.1839066,0.5989962,0.2576723,0.7954321,0.2899237c0.0149174-0.0368929-0.0063086-0.8365088,0.0152845-0.8858156
	c0.0188856-0.0431242,0.0437088-0.073411,0.0613365-0.091774c0.0426054-0.0397863,0.1344786-0.114553,0.2735176-0.148531
	c0.1881104-0.045969,0.3414536,0.0123167,0.3929472,0.0345764c0.0677414,0.0472445,0.2052469,0.1566486,0.2999697,0.3493595
	c0.0922966,0.1877756,0.0968971,0.3588696,0.0937948,0.4412355C15.7462873,9.4603939,15.6946726,10.2316418,15.6430588,11.0028906z"
	/>
<path fill="#E4C950" d="M16.7744293,11.324173c-0.4359093-0.035326-0.8977175-0.0598249-1.3831244-0.0688782
	c-0.5495768-0.010252-1.0701437,0.0004025-1.5582056,0.0254927c0.012743-0.0536556,0.0248642-0.1331606,0.0150003-0.2283049
	c-0.0138111-0.1332264-0.0639801-0.2320461-0.0967407-0.2859154c0.0031071,0.0659103-0.0000458,0.1829195-0.053318,0.3148584
	c-0.0459785,0.1138763-0.1105204,0.1923819-0.1540728,0.2376871c-0.076808,0.0309229-0.1771221,0.0627851-0.2971697,0.0801277
	c-0.1714535,0.0247688-0.3168917,0.0103474-0.4174871-0.008029c0.0383406-0.0442457,0.1321068-0.1644268,0.1532669-0.3462114
	c0.0175133-0.1504545-0.0234108-0.2683449-0.0464621-0.3230066c-0.0213747,0.0837564-0.0650482,0.2107353-0.1593332,0.3412323
	c-0.1317587,0.1823635-0.292861,0.2754145-0.3788929,0.3172779c-0.0827274,0.0145731-0.1844139,0.0252409-0.3003855,0.0217113
	c-0.1693602-0.0051537-0.3101425-0.0387869-0.4123974-0.072072c0.1478739-0.124754,0.3148537-0.2869816,0.477766-0.4933319
	c0.1000223-0.1266909,0.1825409-0.2497854,0.2505369-0.3636312c-0.15306,0.1283073-0.3370657,0.2659359-0.5536022,0.3992777
	c-0.1794643,0.1105137-0.3508425,0.1993437-0.5072479,0.2709227c-0.0885239,0.0123901-0.2259932,0.0204382-0.38694-0.0166044
	c-0.2122221-0.0488453-0.3595324-0.1517553-0.4357128-0.2138243c0.1829967-0.0542822,0.3979235-0.1344357,0.6270275-0.2551155
	c0.1501055-0.0790682,0.2810717-0.1622458,0.3933649-0.2422485c-0.1862183,0.0654345-0.4646578,0.1397476-0.8087091,0.1479349
	c-0.3276377,0.0077953-0.5975637-0.0471649-0.7827244-0.0999317c-0.067277-0.0773077-0.1479263-0.1847458-0.2194691-0.3239632
	c-0.0695877-0.1354122-0.1096096-0.2601309-0.1334543-0.357996c0.3726997,0.0880203,0.8947096,0.1674175,1.5148001,0.125104
	c0.8841772-0.0603342,1.5651588-0.3406515,1.9689817-0.5461559c0.1728077,0.1463881,0.5705729,0.4415722,1.1560059,0.5257177
	c0.3545599,0.0509605,0.6520357,0.0064154,0.8456917-0.0396786c-0.0004845-0.0397911-0.3287992-0.769206-0.327919-0.8230267
	c0.0007706-0.0470715,0.0119753-0.0845938,0.0211458-0.1083403c0.0239401-0.0531511,0.0798206-0.1575918,0.1949596-0.2426186
	c0.1557741-0.1150351,0.3197308-0.1204758,0.3758259-0.1198235c0.0807295,0.0174246,0.2498131,0.0652542,0.4115973,0.2064476
	c0.1576414,0.137579,0.2279444,0.2936296,0.2568846,0.3708057C16.2740879,9.861433,16.5242577,10.592803,16.7744293,11.324173z"/>
<path fill="#FFE159" d="M16.3622169,11.4124651c-0.4874716-0.1483898-1.0071115-0.2908802-1.5574503-0.4216452
	c-0.6230917-0.1480522-1.2183485-0.2651062-1.7801819-0.3576603c0.0278215-0.0579195,0.0613499-0.1454191,0.0737324-0.2561789
	c0.0173388-0.1550922-0.0152512-0.2800379-0.0391779-0.3494921c-0.0128193,0.0758038-0.0454454,0.2082233-0.1388311,0.3452024
	c-0.0806017,0.118227-0.1735573,0.1915798-0.2343798,0.2323475c-0.0951118,0.0161419-0.2172165,0.0275202-0.358182,0.0174723
	c-0.2013283-0.0143509-0.3633156-0.0668602-0.4732723-0.1127434c0.0546265-0.0408535,0.1911936-0.1543999,0.2603931-0.3560915
	c0.0572739-0.1669302,0.0399408-0.3112926,0.0272646-0.3792391c-0.0451183,0.090044-0.1263466,0.2237577-0.2660646,0.348918
	c-0.1952477,0.1749048-0.4017382,0.2408543-0.5100641,0.2671623c-0.0977945-0.0039387-0.2162008-0.0170298-0.3473463-0.0498266
	c-0.1915207-0.0478954-0.3434401-0.1211195-0.4515867-0.1843872c0.1992979-0.1053228,0.4296455-0.2485647,0.6663122-0.4430447
	c0.1453037-0.1194029,0.2697897-0.2390566,0.3754482-0.3517847c-0.2060833,0.1080828-0.4497089,0.2190952-0.7293034,0.3171558
	c-0.2317266,0.0812731-0.4488668,0.1398678-0.644681,0.1825399c-0.1038494-0.007864-0.2623415-0.0328159-0.4363699-0.1149244
	C9.569005,9.6379757,9.4268456,9.4842663,9.3555241,9.394702c0.2217941-0.0163813,0.4863558-0.0542927,0.7771158-0.1348209
	c0.1905003-0.0527601,0.3602333-0.1149492,0.5079203-0.1781578c-0.2282286,0.0282793-0.5636444,0.0437803-0.9573431-0.032279
	C9.3083019,8.9770126,9.014658,8.8474617,8.8169661,8.7414427C8.7595634,8.6367407,8.6944132,8.4944201,8.6475172,8.318182
	C8.601903,8.14676,8.5872917,7.9948492,8.5844336,7.8775229c0.4024363,0.1926904,0.9769878,0.4126163,1.6933966,0.5183272
	c1.0215168,0.1507311,1.8663063,0.0006104,2.3770142-0.1331224c0.1603966,0.2095308,0.539959,0.6442757,1.1855316,0.8853464
	c0.3909836,0.1460018,0.7406836,0.1691122,0.972579,0.1646957c0.0093231-0.0454187-0.1834192-0.9572554-0.1690607-1.0183058
	c0.0125589-0.0533953,0.0346251-0.0933304,0.0509577-0.1180859c0.0404434-0.0545664,0.1299763-0.1595955,0.2821493-0.2278161
	c0.2058792-0.092299,0.393878-0.0578051,0.4575739-0.0431428c0.0875788,0.0398707,0.2681932,0.1362791,0.4173288,0.3371611
	c0.1453171,0.1957397,0.1866245,0.3908329,0.2004185,0.4858713C16.1556206,9.6231232,16.2589188,10.5177937,16.3622169,11.4124651z"
	/>
<path fill="#FFE159" d="M16.3499432,11.4525328c0.3884678-0.2008934,0.8050041-0.4017982,1.2492752-0.5975685
	c0.5030003-0.2216501,0.9873142-0.412816,1.447216-0.5781145c-0.0324707-0.0445747-0.0743484-0.1132345-0.1019859-0.2048092
	c-0.0387001-0.1282282-0.0305748-0.2387552-0.0211544-0.301096c0.022583,0.0619993,0.0706692,0.1687174,0.1707516,0.2698565
	c0.0863819,0.0872936,0.1762295,0.1347904,0.2338982,0.1597672c0.0827904-0.0011311,0.1876297-0.0104713,0.3050632-0.0408239
	c0.1677208-0.0433512,0.2963142-0.1128092,0.3820133-0.1686001c-0.0524521-0.0260115-0.1853504-0.1006699-0.2750568-0.2601881
	c-0.0742455-0.1320248-0.0820141-0.2565746-0.0818539-0.3158979c0.0520554,0.0690088,0.1413689,0.1692781,0.2787285,0.253252
	c0.1919518,0.1173496,0.3764896,0.1409817,0.4720135,0.1463823c0.0819397-0.0184984,0.1798592-0.0479202,0.2854767-0.095953
	c0.1542358-0.0701447,0.2711163-0.1555262,0.3525887-0.2257118c-0.1845741-0.0579853-0.4012432-0.1431608-0.6311951-0.2706079
	c-0.1411819-0.078248-0.2648277-0.159936-0.3715096-0.2387009c0.190731,0.0592613,0.4136086,0.1151714,0.6648369,0.1545677
	c0.2082176,0.0326519,0.4006042,0.0484238,0.5725193,0.0540628c0.0864429-0.0227509,0.2163582-0.0684032,0.350523-0.1647158
	c0.1769047-0.126997,0.2730579-0.2788048,0.3193665-0.3654747c-0.1897659,0.0205841-0.418972,0.0296297-0.6769066,0.0067654
	c-0.168993-0.0149803-0.3219204-0.0411406-0.4563942-0.0715828c0.1970425-0.0115395,0.482584-0.0504951,0.8031158-0.1757832
	c0.3052406-0.1193113,0.5330143-0.27423,0.6834431-0.3943958c0.0322113-0.0972891,0.0651245-0.2275348,0.0773678-0.3835793
	c0.0119076-0.1517806,0.0006733-0.28228-0.0151196-0.3817625c-0.3098125,0.2250957-0.7606869,0.499886-1.3490314,0.7002735
	c-0.8389072,0.2857294-1.5753136,0.2900801-2.0271683,0.2564297c-0.1028862,0.2017584-0.355835,0.6276312-0.8633823,0.9312897
	c-0.3073883,0.1839075-0.5989971,0.2576723-0.795433,0.2899237c-0.0149155-0.0368919,0.0063095-0.8365078-0.0152836-0.8858147
	c-0.0188847-0.0431242-0.0437088-0.073411-0.0613365-0.0917749c-0.0426064-0.0397854-0.1344776-0.1145525-0.2735176-0.14853
	c-0.1881104-0.04597-0.3414536,0.0123167-0.3929482,0.0345764c-0.0677414,0.0472441-0.205246,0.1566486-0.2999687,0.3493586
	c-0.0922966,0.1877766-0.0968971,0.3588705-0.0937958,0.4412355C16.2467136,9.910037,16.2983284,10.6812849,16.3499432,11.4525328z"
	/>
<path fill="#FFE159" d="M15.2255707,11.369998c0.4359093-0.035326,0.8977165-0.0598249,1.3831234-0.0688782
	c0.5495777-0.010252,1.0701447,0.0004025,1.5582066,0.0254927c-0.012743-0.0536556-0.0248642-0.1331606-0.0150013-0.2283049
	c0.0138111-0.1332273,0.0639801-0.2320461,0.0967426-0.2859154c-0.0031071,0.0659103,0.0000458,0.1829195,0.0533161,0.3148584
	c0.0459785,0.1138763,0.1105213,0.1923819,0.1540737,0.2376871c0.076807,0.0309229,0.1771221,0.0627851,0.2971706,0.0801277
	c0.1714535,0.0247688,0.3168907,0.0103474,0.4174862-0.008029c-0.0383415-0.0442457-0.1321068-0.1644268-0.1532669-0.3462114
	c-0.0175133-0.1504545,0.0234108-0.2683449,0.046463-0.3230066c0.0213737,0.0837564,0.0650482,0.2107353,0.1593323,0.3412323
	c0.1317577,0.1823635,0.2928619,0.2754145,0.3788929,0.3172779c0.0827274,0.0145731,0.1844139,0.0252409,0.3003864,0.0217113
	c0.1693592-0.0051537,0.3101425-0.0387869,0.4123974-0.072072c-0.1478748-0.124754-0.3148556-0.2869816-0.4777679-0.4933319
	c-0.1000214-0.1266909-0.182539-0.2497854-0.250536-0.3636312c0.153059,0.1283073,0.3370667,0.2659359,0.5536022,0.3992777
	c0.1794643,0.1105137,0.3508434,0.1993437,0.5072479,0.2709227c0.0885239,0.0123892,0.2259941,0.0204382,0.38694-0.0166044
	c0.2122211-0.0488453,0.3595314-0.1517553,0.4357128-0.2138243c-0.1829967-0.0542822-0.3979225-0.1344357-0.6270275-0.2551155
	c-0.1501045-0.0790682-0.2810726-0.1622458-0.393364-0.2422485c0.1862183,0.0654345,0.4646568,0.1397476,0.8087082,0.1479349
	c0.3276367,0.0077953,0.5975628-0.0471649,0.7827244-0.0999317c0.067276-0.0773077,0.1479263-0.1847458,0.2194691-0.3239632
	c0.0695877-0.1354122,0.1096096-0.2601309,0.1334534-0.357996c-0.3726997,0.0880203-0.8947086,0.1674175-1.5147991,0.125104
	c-0.8841782-0.0603342-1.5651588-0.3406515-1.9689808-0.5461559c-0.1728077,0.1463881-0.5705738,0.4415722-1.1560059,0.5257177
	c-0.3545609,0.0509605-0.6520367,0.0064154-0.8456917-0.0396786c0.0004845-0.0397911,0.3287983-0.769206,0.3279171-0.8230267
	c-0.0007687-0.0470715-0.0119743-0.0845938-0.0211449-0.1083403c-0.023941-0.0531511-0.0798206-0.1575928-0.1949596-0.2426186
	c-0.1557732-0.1150351-0.3197308-0.1204758-0.3758259-0.1198235c-0.0807304,0.0174246-0.2498131,0.0652542-0.4115963,0.2064476
	c-0.1576424,0.137579-0.2279453,0.2936296-0.2568865,0.3708057C15.7259121,9.907258,15.4757414,10.638628,15.2255707,11.369998z"/>
<path fill="#E4C950" d="M15.6377831,11.4582901c0.4874706-0.1483898,1.0071125-0.2908802,1.5574512-0.4216452
	c0.6230907-0.1480522,1.2183475-0.2651062,1.7801819-0.3576603c-0.0278225-0.0579195-0.0613499-0.1454191-0.0737324-0.2561789
	c-0.0173397-0.1550922,0.0152493-0.2800379,0.0391769-0.3494921c0.0128193,0.0758038,0.0454445,0.2082233,0.1388302,0.3452024
	c0.0806026,0.118227,0.1735573,0.1915798,0.2343807,0.2323475c0.0951118,0.0161419,0.2172165,0.0275202,0.358181,0.0174723
	c0.2013302-0.0143509,0.3633175-0.0668602,0.4732742-0.1127434c-0.0546265-0.0408535-0.1911945-0.1543999-0.2603931-0.3560915
	c-0.0572739-0.1669302-0.0399418-0.3112926-0.0272655-0.3792391c0.0451183,0.090044,0.1263466,0.2237577,0.2660637,0.348918
	c0.1952496,0.1749048,0.4017391,0.2408543,0.5100651,0.2671623c0.0977936-0.0039387,0.2162018-0.0170298,0.3473473-0.0498266
	c0.1915188-0.0478954,0.3434391-0.1211195,0.4515858-0.1843872c-0.1992989-0.1053228-0.4296455-0.2485647-0.6663113-0.4430447
	c-0.1453037-0.1194029-0.2697906-0.2390566-0.3754501-0.3517847c0.2060852,0.1080828,0.4497089,0.2190952,0.7293053,0.3171558
	c0.2317257,0.0812731,0.4488659,0.1398678,0.64468,0.1825399c0.1038494-0.007864,0.2623425-0.0328159,0.4363708-0.1149244
	c0.2294712-0.1082697,0.3716297-0.2619791,0.4429512-0.3515434c-0.2217941-0.0163813-0.4863567-0.0542927-0.7771149-0.1348209
	c-0.1905003-0.0527601-0.3602352-0.1149492-0.5079212-0.1781578c0.2282276,0.0282793,0.5636444,0.0437803,0.9573421-0.032279
	c0.3749161-0.0724316,0.66856-0.2019825,0.866251-0.3080015c0.0574036-0.104702,0.1225548-0.2470226,0.1694508-0.4232607
	c0.0456123-0.171422,0.0602245-0.3233328,0.0630836-0.440659c-0.4024372,0.1926904-0.9769897,0.4126163-1.6933975,0.5183272
	c-1.0215168,0.1507311-1.8663063,0.0006104-2.3770142-0.1331224c-0.1603966,0.2095308-0.539959,0.6442757-1.1855316,0.8853464
	c-0.3909836,0.1460018-0.7406826,0.1691122-0.97258,0.1646957c-0.0093231-0.0454187,0.1834202-0.9572554,0.1690617-1.0183058
	c-0.012558-0.0533953-0.034626-0.0933304-0.0509567-0.1180859c-0.0404434-0.0545664-0.1299763-0.1595955-0.2821503-0.2278161
	c-0.2058792-0.092299-0.393877-0.0578051-0.4575748-0.0431428c-0.0875778,0.0398707-0.2681923,0.1362791-0.4173279,0.3371611
	c-0.1453171,0.1957397-0.1866255,0.3908329-0.2004194,0.4858713C15.8443785,9.6689482,15.7410812,10.5636187,15.6377831,11.4582901z
	"/>
<path fill="#FFE159" d="M14.2428398,7.1904168l-1.6227579-1.6969295c-0.0331383-0.0346537-0.0841274-0.0454583-0.1284733-0.027225
	l-0.0983973,0.0404577c-0.0425186,0.0174823-0.0707769,0.0583386-0.0721321,0.104291l-0.0149012,0.505147
	c-0.001935,0.0655861-0.0576372,0.1166315-0.1231422,0.1128478l-0.2652617-0.0153222
	c-0.066432-0.0038371-0.1161528-0.0624528-0.1091042-0.1286206l0.063096-0.5922832
	c0.0046368-0.0435309-0.0151701-0.0857539-0.0518389-0.1096683c-0.1311235-0.0855141-0.4458685-0.2907796-0.5995684-0.3910179
	c-0.04877-0.0318065-0.1135283-0.0230312-0.1512842,0.0212932c-0.1324015,0.1554351-0.3433971,0.3621864-0.6494904,0.5323734
	c-0.3258486,0.1811709-0.6319389,0.2500005-0.8426189,0.2774115C9.5159111,5.8311152,9.4596348,5.789917,9.4480257,5.7294521
	L9.375618,5.3523355C9.3623562,5.2832646,9.4126053,5.2177982,9.4828463,5.2142019
	c0.1516151-0.0077624,0.3709431-0.0430598,0.6014309-0.1667161c0.270402-0.145071,0.4343224-0.346386,0.5239439-0.4850755
	c0.0373592-0.0578132,0.0168877-0.1349483-0.0441961-0.1666803L8.8270493,3.4933946
	C8.7930059,3.4757092,8.7697639,3.4424925,8.7648134,3.4044497L8.7643862,3.4011626
	C8.7594357,3.3631201,8.7361937,3.3299031,8.7021503,3.312218L8.2545862,3.0797131
	C8.2396307,3.0719435,8.2231655,3.0675123,8.2063303,3.0667253L8.1275301,3.0760155
	C8.1160707,3.0754797,8.017066,3.0325141,7.9714584,3.0044422C7.9555283,2.994637,7.9496574,2.9602704,7.9469032,2.9545414
	L7.8607368,2.7753301c-0.010921-0.0227132-0.0289135-0.0412712-0.0512781-0.0528893L7.3697696,2.4940267
	C7.3484902,2.4799068,7.3176703,2.4648676,7.284194,2.4706302C7.2761388,2.4720166,7.2708325,2.4761417,7.2708268,2.476145
	C7.2691574,2.4771423,7.268496,2.4776776,7.2631478,2.4813588C7.2631421,2.4813626,7.2598343,2.483639,7.2535076,2.4879086
	c-0.0017848,0.0012043-0.0727763,0.058743-0.0892153,0.0508885C7.1275349,2.5245359,7.0505128,2.4981496,6.9773059,2.4632654
	C6.9863334,2.3757508,7.0096297,2.3067768,6.9920201,2.307133L6.9324908,2.2735207
	c0.007576-0.0218897,0.045331-0.1052392,0.0721316-0.1348577L7.025897,2.1479743
	c0.0493765,0.0202432,0.039948,0.0200973,0.0667024-0.0235624c0,0,0.1436791-0.2934648,0.1507211-0.30293
	c0.0079122-0.0206461,0.0426779,0.006695,0.188992,0.0824254C7.4272327,1.9363066,7.4228697,1.9706441,7.4195848,2.006783
	C7.4147644,2.059819,7.412909,2.109652,7.4130306,2.1557009l0.0073085,0.095506
	c0.0030746,0.0401709,0.0266891,0.0759006,0.0624413,0.0944736l0.4115233,0.2137818
	c0.0222774,0.0115731,0.0476971,0.0156386,0.072473,0.0115914l0.3171663-0.0518115
	c0.0247755-0.0040472,0.0501957,0.0000184,0.0724726,0.0115912l0.5435915,0.2823901
	c0.0162239,0.0084283,0.0342045,0.0129189,0.0524864,0.0131087l0.1588516,0.0016482
	c0.0185566,0.0001924,0.0367994,0.0048165,0.0532074,0.0134866l0.9390078,0.4961736
	c0.0254059,0.0134249,0.0568848,0.0035911,0.0701323-0.0219088l0,0c0.0131645-0.0253422,0.044364-0.035239,0.0697289-0.0221193
	l0.5678043,0.293678c0.0334425,0.0172973,0.0564613,0.0496933,0.0617924,0.0869648l0.0082932,0.057977
	c0.0053205,0.037199,0.0282612,0.0695457,0.0616074,0.0868688l1.7442732,0.9061322
	c0.0286427,0.0148792,0.0498266,0.040977,0.0584984,0.0720673l0.0712519,0.2554507
	c0.00776,0.027822,0.0255814,0.0517678,0.0500031,0.0671897l1.9520426,1.2326841
	c0.0549603,0.0347066,0.070878,0.1076818,0.0353632,0.1621227l-0.4297781,0.6588078
	C14.3835707,7.2364073,14.2947044,7.2446523,14.2428398,7.1904168z"/>
<path fill="#FFE159" d="M17.622345,7.1735559l-0.4297791-0.6588078c-0.0355148-0.054441-0.0195961-0.1274161,0.0353622-0.1621227
	l1.9520435-1.2326841c0.0244217-0.0154219,0.0422421-0.0393677,0.0500031-0.0671897l0.0712528-0.2554507
	c0.0086708-0.0310903,0.0298557-0.057188,0.0584984-0.0720673l1.7442722-0.9061322
	c0.0333462-0.017323,0.0562878-0.0496697,0.0616074-0.0868688l0.0082932-0.057977
	c0.005331-0.0372715,0.0283508-0.0696676,0.0617924-0.0869648l0.5678043-0.293678
	c0.0253658-0.0131197,0.0565643-0.0032229,0.0697289,0.0221193l0,0c0.0132465,0.0254998,0.0447254,0.0353336,0.0701332,0.0219088
	l0.9390068-0.4961736c0.0164089-0.0086701,0.0346508-0.0132942,0.0532074-0.0134866l0.1588516-0.0016482
	c0.0182819-0.0001898,0.0362625-0.0046804,0.0524864-0.0131087l0.5435905-0.2823901
	c0.0222778-0.0115728,0.047699-0.0156384,0.0724735-0.0115912l0.3171654,0.0518115
	c0.0247765,0.0040472,0.0501976-0.0000184,0.0724735-0.0115914l0.4115238-0.2137818
	c0.0357513-0.018573,0.0593662-0.0543027,0.0624409-0.0944736l0.007309-0.095506
	c0.0001221-0.0460489-0.0017338-0.0958819-0.0065536-0.1489179c-0.0032845-0.0361389-0.0076485-0.0704764-0.0127277-0.1028758
	c0.1463127-0.0757303,0.1810799-0.1030715,0.1889915-0.0824254c0.0070419,0.0094652,0.1507206,0.30293,0.1507206,0.30293
	c0.0267544,0.0436597,0.0173264,0.0438056,0.0667038,0.0235624l0.0212746-0.0093112
	c0.0268002,0.0296185,0.0645542,0.112968,0.0721302,0.1348577L25.0548973,2.307133
	c-0.0176105-0.0003562,0.0056858,0.0686178,0.0147133,0.1561325c-0.0732059,0.0348842-0.1502285,0.0612705-0.186985,0.0755317
	c-0.0164394,0.0078545-0.087431-0.0496843-0.0892162-0.0508885c-0.0063267-0.0042696-0.009634-0.006546-0.0096397-0.0065498
	c-0.0053482-0.0036812-0.0060101-0.0042164-0.007679-0.0052137c-0.0000057-0.0000033-0.005312-0.0041285-0.0133667-0.0055149
	c-0.0334778-0.0057626-0.0642967,0.0092766-0.085577,0.0233965l-0.4396896,0.2284141
	c-0.0223637,0.0116181-0.0403557,0.0301762-0.0512772,0.0528893l-0.0861664,0.1792114
	c-0.0027542,0.005729-0.008625,0.0400956-0.0245552,0.0499008c-0.0456085,0.0280719-0.1446114,0.0710375-0.1560707,0.0715733
	l-0.0788021-0.0092902c-0.0168343,0.000787-0.0332985,0.0052183-0.0482559,0.0129879L23.3447666,3.312218
	c-0.0340443,0.0176852-0.0572853,0.0509021-0.0622349,0.0889447l-0.0004292,0.0032871
	c-0.0049496,0.0380428-0.0281906,0.0712595-0.0622349,0.0889449L21.4828911,4.39573
	c-0.0610828,0.0317321-0.0815544,0.1088672-0.0441952,0.1666803c0.0896206,0.1386895,0.2535419,0.3400044,0.5239449,0.4850755
	c0.2304859,0.1236563,0.4498158,0.1589537,0.6014309,0.1667161c0.07024,0.0035963,0.1204891,0.0690627,0.1072273,0.1381335
	l-0.0724068,0.3771167c-0.01161,0.0604649-0.0678864,0.1016631-0.1289406,0.0937195
	c-0.21068-0.027411-0.5167713-0.0962405-0.8426189-0.2774115c-0.3060932-0.170187-0.5170898-0.3769383-0.6494904-0.5323734
	c-0.037756-0.0443244-0.1025143-0.0530996-0.1512852-0.0212932c-0.153698,0.1002383-0.4684429,0.3055038-0.5995674,0.3910179
	c-0.0366688,0.0239143-0.0564766,0.0661373-0.0518379,0.1096683l0.0630951,0.5922832
	c0.0070496,0.0661678-0.0426731,0.1247835-0.1091042,0.1286206l-0.2652607,0.0153222
	c-0.065506,0.0037837-0.1212082-0.0472617-0.1231422-0.1128478l-0.0149021-0.505147
	c-0.0013561-0.0459523-0.0296135-0.0868087-0.0721321-0.104291l-0.0983982-0.0404577
	c-0.0443459-0.0182333-0.0953331-0.0074286-0.1284714,0.027225l-1.6227589,1.6969295
	C17.7522125,7.2446523,17.6633453,7.2364073,17.622345,7.1735559z"/>
<circle fill="#FFE159" cx="16.0049133" cy="6.4764857" r="4.6525764"/>
<polygon fill="#E4C950" points="7.4099612,7.2718368 6.7602201,6.9281163 6.1087232,7.268497 6.2348399,6.5443411 
	5.709795,6.0299139 6.4374804,5.9260817 6.7644815,5.2677674 7.0880995,5.9277515 7.8152423,6.0353179 7.2875638,6.5470428 "/>
<polygon fill="#FFE159" points="24.4669838,7.2618208 25.116724,6.9181004 25.7682209,7.258481 25.6421051,6.5343251 
	26.1671505,6.0198979 25.4394646,5.9160657 25.112463,5.2577515 24.7888451,5.9177356 24.0617027,6.0253019 24.5893803,6.5370269 
	"/>
<circle fill="#023943" cx="16" cy="6.4764857" r="4.3738499"/>
<path fill="#26635F" d="M30.5989456,4.5474916"/>
<path fill="#96D2CA" d="M19.5983467,8.1890078c0.0450096,0.019742,0.0744076,0.0459538,0.0901947,0.0779371
	c0.1636028,0.3314466-0.666048,1.2445564-1.4056473,1.7422237c-0.3412647,0.2296324-1.3335514,0.8973293-2.6611118,0.7307453
	c-1.4211645-0.1783295-2.6255522-1.2373199-2.8082895-2.1514931c-0.1115284-0.5579395,0.1339207-1.1870546,0.1897526-1.3086991
	c0.1454334-0.3168664,0.3868971,0.5805683,0.636035,0.5562592c0.0085077-0.0008302,0.0432329-0.005825,0.0693569-0.0321774
	c0.1671839-0.168644-0.4812479-0.7498908-0.3720036-1.209744c0.1283379-0.5402255,1.2860003-0.8441005,1.5147753-0.5639896
	c0.1784134,0.2184486-0.2935476,0.6874652-0.05933,1.0689402c0.1072235,0.1746364,0.2470722,0.1430197,0.5940599,0.3564358
	c0.4040108,0.2484884,0.8367939,0.6741443,0.7619572,0.8329597c-0.107605,0.2283554-1.2252254-0.1787386-1.2833176-0.0238972
	c-0.0548477,0.1461945,0.8871927,0.6536579,1.3303204,0.87428c0.246685,0.122818,0.3700256,0.184227,0.4203091,0.1976318
	C17.775816,9.6457806,18.9428368,7.9014897,19.5983467,8.1890078z"/>
<path fill="#96D2CA" d="M15.063323,5.1151972c0.0248537,0.218082-0.378541,0.2446303-0.6605501,0.6371331
	c-0.4274616,0.5949478,0.0603333,1.1563354-0.1644487,2.3953385c-0.0374231,0.2062778-0.2217112,1.222084-0.6749258,1.2933645
	c-0.1797915,0.0282774-0.3534422-0.0997114-0.5164709-0.2632647c-1.1056881-1.109251-1.4558516-3.5591564-0.8521538-3.9351873
	c0.1647654-0.1026287,0.2893305,0.0589242,0.5607243-0.0628071c0.3691015-0.1655588,0.4170256-0.5500183,0.7708645-0.6177211
	c0.0602217-0.0115223,0.1190748-0.0119123,0.2948246,0.0225005C14.2377691,4.666121,15.0298195,4.8212066,15.063323,5.1151972z"/>
<path fill="#96D2CA" d="M17.8368263,9.9303074c-0.0703754-0.0184736-0.0347519-0.1476336-0.1232738-0.2938881
	c-0.0876331-0.1447868-0.2057381-0.1556549-0.510252-0.3039093c-0.2576942-0.1254597-0.5953102-0.2898283-0.5784492-0.4312553
	c0.0055828-0.0468235,0.0495911-0.0880489,0.150116-0.1341238c0.4509563-0.2066917,1.3221588-0.0927181,1.3810101,0.2185278
	c0.0125256,0.0662336-0.0554256,0.0862627-0.0501137,0.1894159c0.007225,0.1402903,0.1256676,0.2041063,0.1031303,0.3271618
	c-0.0038357,0.0209436-0.0111046,0.0400448-0.0443249,0.092618C18.0859261,9.7194681,17.9362106,9.9563971,17.8368263,9.9303074z"/>
<path fill="#96D2CA" d="M13.202879,3.7202027c0.0314016-0.03247,0.0904703,0.0260923,0.1965485,0.0226634
	c0.1050129-0.0033946,0.1468143-0.0640092,0.319665-0.1837289c0.1462736-0.1013129,0.3379135-0.2340467,0.4093275-0.1819081
	c0.0236435,0.0172617,0.0325718,0.053617,0.0269356,0.122036c-0.0252848,0.3069274-0.3519297,0.7437737-0.5382805,0.6809661
	c-0.0396557-0.0133657-0.02983-0.0562329-0.0872746-0.0847297c-0.078124-0.0387568-0.1486845,0.0059371-0.2084303-0.0436854
	c-0.0101681-0.0084453-0.0182962-0.0181885-0.0366459-0.0521569C13.24123,3.9191427,13.1585331,3.7660563,13.202879,3.7202027z"/>
<path opacity="0.47" fill="#023943" d="M19.9655933,7.6004362c0.29282,0.3158221-0.3955402,1.6769342-1.4767723,2.4519796
	c-1.554224,1.1140938-3.3862514,0.6344423-3.666997,0.556098c-0.3884058-0.108387-1.7242889-0.5036039-2.5242538-1.8258858
	c-0.8427811-1.3930526-0.7795773-3.3007336-0.2508144-3.4948173c0.7452354-0.2735405,1.6394854,3.1415439,4.0269766,3.5105338
	C18.0092831,9.0974865,19.5821514,7.1868734,19.9655933,7.6004362z"/>
<path fill="#96D2CA" d="M18.2727985,7.3840084c-0.0125484-0.0757103,0.127142-0.0970864,0.2297821-0.2453413
	c0.1016064-0.1467662,0.0611649-0.2651448,0.0726318-0.6221871c0.0097027-0.3021469,0.0224152-0.6980014,0.1658287-0.7427268
	c0.0474815-0.0148077,0.1061344,0.0097871,0.1938171,0.0866995c0.393343,0.3450289,0.6591301,1.2328215,0.3848724,1.4236288
	c-0.0583611,0.0406041-0.1069298-0.0161753-0.2039413,0.0333996c-0.131937,0.0674224-0.1423206,0.2089467-0.2704945,0.2402902
	c-0.0218143,0.0053344-0.043335,0.0065713-0.108263-0.0027494C18.5831318,7.5329294,18.2905197,7.4909253,18.2727985,7.3840084z"/>
<path fill="#96D2CA" d="M17.2331219,7.5293317c0.0907726,0.2627301-1.5939798,1.1763539-1.7944078,0.9259124
	c-0.108058-0.1350222,0.271493-0.5382166,0.1292715-0.7049484c-0.1437006-0.1684651-0.6594687,0.1252823-0.7770424-0.0649629
	c-0.0511408-0.0827498-0.0240021-0.1948113,0.0228615-0.3089981c0.3178368-0.7744317,1.4526997-1.4539685,1.7629375-1.2342772
	c0.084671,0.0599589,0.0308342,0.1547771,0.146986,0.26333c0.2018909,0.1886849,0.4294701,0.1469173,0.4639339,0.2520576
	c0.0607243,0.1852632-0.6573391,0.4951711-0.6063499,0.6823535C16.625021,7.5002546,17.1834908,7.385675,17.2331219,7.5293317z"/>
<path fill="#96D2CA" d="M14.6349144,3.6357734c-0.0035419,0.0208452-0.0418425,0.0138478-0.0819054,0.043225
	c-0.0396614,0.0290821-0.0397768,0.0635476-0.0748749,0.1554973c-0.0297031,0.0778124-0.0686169,0.1797574-0.1099873,0.1785061
	c-0.0136967-0.0004144-0.0267591-0.0120945-0.042676-0.0400102c-0.0714025-0.1252301-0.0607691-0.3803341,0.0278139-0.4053574
	c0.0188503-0.0053251,0.026392,0.0138299,0.0561142,0.009645c0.0404234-0.0056918,0.0558558-0.0416136,0.0920544-0.0382481
	c0.0061607,0.0005729,0.0118761,0.0021863,0.0279465,0.0104532C14.5674915,3.5690796,14.6399155,3.6063361,14.6349144,3.6357734z"/>
<path fill="#96D2CA" d="M14.4791698,3.0889137c-0.0017319,0.0101931-0.0204611,0.0067716-0.0400515,0.0211368
	c-0.0193939,0.0142212-0.0194502,0.0310748-0.0366135,0.0760379c-0.0145245,0.0380502-0.0335531,0.0879011-0.0537834,0.0872891
	c-0.0066977-0.0002027-0.0130854-0.0059142-0.0208683-0.0195649c-0.0349159-0.0612373-0.0297165-0.1859825,0.0136003-0.1982188
	c0.0092182-0.0026038,0.0129061,0.0067627,0.0274401,0.0047164c0.0197668-0.0027833,0.0273132-0.020349,0.0450144-0.0187032
	c0.0030127,0.0002801,0.0058069,0.0010691,0.0136652,0.0051117C14.4462004,3.0563006,14.4816151,3.0745189,14.4791698,3.0889137z"/>
<path fill="#96D2CA" d="M18.8095684,7.7832098c-0.0035419,0.0208449-0.0418434,0.0138478-0.0819073,0.0432253
	c-0.0396595,0.0290818-0.0397758,0.0635476-0.0748749,0.1554971c-0.0297012,0.0778127-0.068615,0.1797576-0.1099854,0.1785064
	c-0.0136967-0.0004148-0.0267601-0.0120945-0.0426769-0.0400105c-0.0714016-0.1252303-0.06077-0.3803339,0.0278149-0.4053574
	c0.0188503-0.0053248,0.026392,0.0138297,0.0561142,0.009645c0.0404224-0.0056915,0.0558548-0.0416136,0.0920544-0.0382481
	c0.0061607,0.0005727,0.0118752,0.0021863,0.0279465,0.0104532C18.7421455,7.716516,18.8145695,7.7537727,18.8095684,7.7832098z"/>
<path fill="#96D2CA" d="M19.0784569,7.6188402c0.0093975-0.0043154,0.017128,0.0130839,0.0400352,0.0211687
	c0.0226784,0.0080037,0.0366325-0.0014496,0.0834465-0.0126166c0.0396156-0.00945,0.0915184-0.021831,0.102417-0.004776
	c0.0036068,0.0056462,0.0024891,0.014142-0.0043983,0.0282655c-0.0309029,0.0633574-0.1368732,0.1293769-0.1713963,0.1004939
	c-0.0073471-0.0061464-0.001688-0.014472-0.0115719-0.0253239c-0.0134411-0.0147591-0.0322037-0.0110912-0.0408211-0.0266399
	c-0.0014668-0.0026464-0.0023899-0.0053997-0.0034809-0.0141692C19.0701027,7.6644559,19.0651894,7.6249337,19.0784569,7.6188402z"
	/>
<path fill="#96D2CA" d="M17.7272415,4.4043417c-0.0159931-0.0964913,0.2192249-0.1367683,0.2297802-0.2453408
	c0.027422-0.2820807-1.5043659-0.561295-1.482172-0.7872188c0.0083656-0.08515,0.2264137-0.0501385,0.6683178-0.2227721
	c0.5062981-0.1977904,0.7206402-0.4393029,1.0523167-0.3549235c0.0538597,0.0137019,0.1005116,0.0380344,0.1938152,0.0866992
	c0.2272129,0.1185079,0.4753094,0.2997811,0.8251209,0.7239466c0.323782,0.3926024,0.502203,0.6089485,0.4386482,0.7026937
	c-0.1118374,0.1649652-0.8428936-0.2415953-1.0828381,0.0303884c-0.0588703,0.066731-0.1244793,0.2045879-0.2704926,0.2402902
	c-0.0218163,0.0053344-0.0433369,0.0065713-0.1082649-0.0027494C18.0375729,4.5532632,17.7449627,4.5112591,17.7272415,4.4043417z"
	/>
</svg>
