<?xml version="1.0" encoding="utf-8"?>
<!-- Generator: Adobe Illustrator 24.0.2, SVG Export Plug-In . SVG Version: 6.00 Build 0)  -->
<!DOCTYPE svg PUBLIC "-//W3C//DTD SVG 1.0//EN" "http://www.w3.org/TR/2001/REC-SVG-20010904/DTD/svg10.dtd" [
	<!ENTITY ns_extend "http://ns.adobe.com/Extensibility/1.0/">
	<!ENTITY ns_ai "http://ns.adobe.com/AdobeIllustrator/10.0/">
	<!ENTITY ns_graphs "http://ns.adobe.com/Graphs/1.0/">
	<!ENTITY ns_vars "http://ns.adobe.com/Variables/1.0/">
	<!ENTITY ns_imrep "http://ns.adobe.com/ImageReplacement/1.0/">
	<!ENTITY ns_sfw "http://ns.adobe.com/SaveForWeb/1.0/">
	<!ENTITY ns_custom "http://ns.adobe.com/GenericCustomNamespace/1.0/">
	<!ENTITY ns_adobe_xpath "http://ns.adobe.com/XPath/1.0/">
]>
<svg version="1.0" id="Слой_1" xmlns:x="&ns_extend;" xmlns:i="&ns_ai;" xmlns:graph="&ns_graphs;"
	 xmlns="http://www.w3.org/2000/svg" xmlns:xlink="http://www.w3.org/1999/xlink" x="0px" y="0px" width="32px" height="13px"
	 viewBox="0 0 32 13" enable-background="new 0 0 32 13" xml:space="preserve">
<metadata>
	<sfw  xmlns="&ns_sfw;">
		<slices></slices>
		<sliceSourceBounds  bottomLeftOrigin="true" height="16383" width="16383" x="-8175" y="-8198"></sliceSourceBounds>
	</sfw>
</metadata>
<path fill="#333F50" stroke="#D2D2D2" stroke-width="0.25" stroke-miterlimit="10" d="M6.6692953,0.473495h18.6712379
	c3.3153553,0,6.0029831,2.6876278,6.0029831,6.002985v0.0000119c0,3.3153572-2.6876278,6.002985-6.0029831,6.002985H6.6692953
	c-3.3153567,0-6.0029845-2.6876278-6.0029845-6.002985V6.47648C0.6663106,3.1611228,3.3539386,0.473495,6.6692953,0.473495z"/>
<path fill="#303741" d="M31.1087132,5.6237626c0.0442257,0.2451639,0.0784626,0.5553336,0.0668316,0.9133663
	c-0.0107384,0.3305607-0.0578098,0.6167994-0.1113873,0.8465343c-0.0888443,0.5471425-0.3905907,1.9339991-1.5649147,3.1407928
	c-1.6662655,1.7123384-3.8200531,1.757802-4.244751,1.7582331H6.5832558c-1.598772-0.3569469-2.6118939-1.1404839-2.540298-1.62673
	c0.071743-0.4872465,1.2726593-0.9475422,2.9172401-0.8218012c0.8492737-0.0334177,1.6985469-0.0668354,2.5478206-0.1002531
	c5.0395384-1.1517086,8.7968597-2.7465053,11.3086147-3.9987564c3.8442135-1.9165573,6.8793812-4.0819759,8.8217831-2.8960395
	C30.6299152,3.4444702,30.9719315,4.7003574,31.1087132,5.6237626z"/>
<g>
	<path fill="#FFE159" d="M19.8925438,8.1996908c-0.3536568-0.1453876-0.7386551-0.271935-1.1914539-0.468338
		c-0.4512959,0.2000771-0.8350658,0.3288717-1.1861515,0.4756365c-0.0064526-0.31533,0.0152683-0.7479615,0.071743-1.2445245
		c-0.3582993-0.371511-0.6358376-0.7347016-0.8154545-1.011898c0.2543755-0.1080341,0.7126274-0.218338,1.2203751-0.3108702
		c0.2422791-0.464437,0.4992867-0.8746448,0.6957893-1.0937147c0.1986752,0.2180562,0.4592876,0.6256127,0.7055035,1.0879683
		c0.508215,0.0883131,0.9669132,0.1946316,1.2224636,0.3003726c-0.1786633,0.2790356-0.4520092,0.6439285-0.8067322,1.0185285
		C19.8692074,7.4488568,19.8944988,7.8807549,19.8925438,8.1996908z"/>
</g>
<g>
	<path fill="#FFE159" d="M14.5354471,8.1996908c-0.3536606-0.1453867-0.738657-0.2719331-1.1914587-0.468338
		c-0.4512959,0.200078-0.8350658,0.3288727-1.1861496,0.4756365c-0.0064526-0.3153281,0.0152626-0.7479625,0.0717449-1.244524
		c-0.3582993-0.3715129-0.6358414-0.7347016-0.8154573-1.0118985c0.2543755-0.1080341,0.7126255-0.218338,1.220377-0.3108702
		c0.2422819-0.464437,0.4992838-0.8746448,0.6957884-1.0937147c0.1986828,0.2180562,0.4592857,0.6256127,0.7055035,1.0879683
		c0.5082121,0.0883131,0.9669161,0.1946316,1.2224646,0.3003726c-0.1786623,0.2790356-0.4520121,0.6439285-0.8067341,1.0185285
		C14.5121126,7.4488559,14.5374022,7.8807549,14.5354471,8.1996908z"/>
</g>
<path fill="#FFE159" d="M4.8739533,3.8100209C4.6890779,3.5006521,4.2561221,3.4503021,4.0129843,3.7163317
	C3.5477533,4.2253637,2.94315,5.117835,2.8958304,6.3583183C2.8446949,7.6988406,3.473206,8.6893663,3.9684041,9.2562342
	c0.2628725,0.3009195,0.7459543,0.2528315,0.9611881-0.0838118L4.980309,9.0709963
	c0.1050439-0.2100735,0.0660791-0.4662266-0.1039333-0.6282768C4.507638,8.0912504,3.9765143,7.415658,3.9702761,6.4361768
	C3.9668119,5.8922706,4.1263833,5.4404192,4.3272595,5.087985c0.152554-0.267653,0.3289299-0.4779668,0.4758072-0.6277142
	c0.1699486-0.1732697,0.1953874-0.4419117,0.0708871-0.650249L4.8739533,3.8100209z"/>
<path fill="#FFE159" d="M27.2611675,3.7900209c0.1736889-0.3093688,0.5804501-0.3597188,0.8088779-0.0936892
	c0.4370842,0.509032,1.0051079,1.4015033,1.0495644,2.6419866c0.0480423,1.3405223-0.5424442,2.3310485-1.0076809,2.8979163
	c-0.2469692,0.3009195-0.7008228,0.2528315-0.9030342-0.0838118l-0.0476494-0.1014261
	C27.0625572,8.8409233,27.099165,8.5847702,27.2588902,8.42272c0.3464298-0.351469,0.8454189-1.0270619,0.8512802-2.0065432
	c0.0032539-0.5439062-0.1466637-0.9957576-0.3353863-1.3481917c-0.1433239-0.267653-0.3090286-0.4779668-0.4470196-0.6277142
	c-0.1596661-0.1732697-0.183567-0.4419117-0.0665989-0.650249L27.2611675,3.7900209z"/>
</svg>
