<?xml version="1.0" encoding="utf-8"?>
<!-- Generator: Adobe Illustrator 24.0.2, SVG Export Plug-In . SVG Version: 6.00 Build 0)  -->
<!DOCTYPE svg PUBLIC "-//W3C//DTD SVG 1.0//EN" "http://www.w3.org/TR/2001/REC-SVG-20010904/DTD/svg10.dtd" [
	<!ENTITY ns_extend "http://ns.adobe.com/Extensibility/1.0/">
	<!ENTITY ns_ai "http://ns.adobe.com/AdobeIllustrator/10.0/">
	<!ENTITY ns_graphs "http://ns.adobe.com/Graphs/1.0/">
	<!ENTITY ns_vars "http://ns.adobe.com/Variables/1.0/">
	<!ENTITY ns_imrep "http://ns.adobe.com/ImageReplacement/1.0/">
	<!ENTITY ns_sfw "http://ns.adobe.com/SaveForWeb/1.0/">
	<!ENTITY ns_custom "http://ns.adobe.com/GenericCustomNamespace/1.0/">
	<!ENTITY ns_adobe_xpath "http://ns.adobe.com/XPath/1.0/">
]>
<svg version="1.0" id="Слой_1" xmlns:x="&ns_extend;" xmlns:i="&ns_ai;" xmlns:graph="&ns_graphs;"
	 xmlns="http://www.w3.org/2000/svg" xmlns:xlink="http://www.w3.org/1999/xlink" x="0px" y="0px" width="32px" height="13px"
	 viewBox="0 0 32 13" enable-background="new 0 0 32 13" xml:space="preserve">
<metadata>
	<sfw  xmlns="&ns_sfw;">
		<slices></slices>
		<sliceSourceBounds  bottomLeftOrigin="true" height="16383" width="16383" x="-8175" y="-8198"></sliceSourceBounds>
	</sfw>
</metadata>
<path fill="#110C10" stroke="#FFE159" stroke-width="0.25" stroke-miterlimit="10" d="M6.6692953,0.473495h18.6712379
	c3.3153553,0,6.0029831,2.6876278,6.0029831,6.002985v0.0000119c0,3.3153572-2.6876278,6.002985-6.0029831,6.002985H6.6692953
	c-3.3153567,0-6.0029845-2.6876278-6.0029845-6.002985V6.47648C0.6663106,3.1611228,3.3539386,0.473495,6.6692953,0.473495z"/>
<path fill="#181317" d="M6.6424661,0.674866C6.5367432,1.6867747,6.5544348,2.9382977,7.2738495,3.4144616
	c0.5442233,0.3602087,1.1168871,0.0297425,2.1345663,0.0706868C10.9604568,3.5475919,12.0999107,4.4156442,12.75,4.9108911
	c2.2372341,1.7043562,2.2631826,3.9490733,3.4336624,3.9822974c0.3431892,0.0097418,0.8557129-0.168623,1.5033607-1.1384587
	c1.8659573,1.0894952,3.6180172,2.115519,4.9227772,2.9183125c0.4679184,0.2879009,0.8783092,0.5470915,1.2157955,0.7702036
	c0.8333702,0.5509415,1.2221889,0.8818884,0.9349136,0.8818884H6.6424661c-3.2171297,0-5.8251286-2.6079988-5.8251286-5.8251286
	V6.4999943C0.8173378,3.2828648,3.4253364,0.674866,6.6424661,0.674866z"/>
<path fill="#110C10" d="M6.4338121,6.2698021C6.3788619,6.7957506,6.3880572,7.4462409,6.7619796,7.6937318
	c0.2828646,0.1872215,0.580512,0.0154586,1.1094599,0.0367398c0.8066878,0.0324554,1.3989291,0.483634,1.7368188,0.7410431
	c1.1628227,0.8858538,1.1763096,2.0525665,1.7846766,2.0698347c0.1783762,0.0050631,0.4447651-0.0876436,0.7813854-0.5917244
	c0.9698486,0.5662756,1.880497,1.0995607,2.5586586,1.516819c0.2432051,0.1496391,0.4565096,0.2843561,0.6319208,0.400321
	c0.4331512,0.2863569,0.6352434,0.4583693,0.4859295,0.4583693h-9.417017c-1.6721325,0-3.0276632-1.3555307-3.0276632-3.0276632
	V9.2974653C3.4061489,7.6253328,4.7616796,6.2698021,6.4338121,6.2698021z"/>
<path fill="#181317" d="M25.9286613,8.3663549c0.0683727-0.6682081,0.0549335-1.4944358-0.4206924-1.807786
	c-0.3598022-0.2370434-0.7374096-0.0180645-1.4093361-0.0436645c-1.0247421-0.039041-1.7782269-0.6105242-2.2081127-0.9365706
	c-1.479414-1.1220641-1.4997025-2.6039848-2.2724972-2.6242726c-0.2265873-0.0059488-0.564703,0.1125283-0.9909153,0.7537229
	c-1.2334328-0.7166572-2.3915825-1.3915708-3.2541113-1.9197372c-0.3093233-0.1894131-0.5806274-0.3599528-0.8037491-0.5067762
	c-0.5509644-0.3625582-0.8081274-0.5805012-0.6184683-0.5809054l11.9614906-0.0254905
	c2.1239414-0.0045263,3.8494053,1.7135993,3.8539314,3.8375411v0.0000076
	C29.7707272,6.6363649,28.0526028,8.3618288,25.9286613,8.3663549z"/>
<path fill="#110C10" stroke="#FFE159" stroke-width="0.25" stroke-miterlimit="10" d="M20.3245564,9.4278288l-0.7265778,0.1083536
	c-0.7085857,0.1056709-1.3198013,0.5532475-1.6344585,1.1968689l-0.322649,0.6599646
	c-0.6604099,1.3508434-2.5831194,1.3580341-3.2536144,0.0121689L14.05968,10.7476511
	c-0.3194637-0.6412497-0.9340096-1.0842419-1.6433649-1.1846104L11.6889477,9.460125
	c-1.4888058-0.2106543-2.0897942-2.0370378-1.0169954-3.0906119l0.5241241-0.5147319
	c0.5111456-0.5019851,0.7425508-1.2233458,0.618804-1.9289985l-0.1268892-0.7235699
	c-0.2597227-1.4810339,1.2915554-2.616992,2.6250772-1.9222715l0.6515026,0.339411
	c0.6353683,0.3310063,1.392931,0.328173,2.0258064-0.0075762l0.6489468-0.3442748
	c1.3282871-0.7046756,2.8880196,0.4196475,2.6393814,1.9025829l-0.1214733,0.7244992
	c-0.1184673,0.7065585,0.1183281,1.4261682,0.633213,1.9243162l0.5279598,0.5107965
	C22.3990555,7.3752165,21.8117447,9.2060452,20.3245564,9.4278288z"/>
<path fill="#110C10" stroke="#FFE159" stroke-width="0.25" stroke-miterlimit="10" d="M17.6620083,11.5690241l-0.6499023-0.3424625
	c-0.63381-0.3339825-1.3913784-0.3347015-2.0258207-0.0019236l-0.6505527,0.3412285
	c-1.3315783,0.6984386-2.8860207-0.4331856-2.6304321-1.914938l0.1248703-0.7239227
	c0.1217775-0.7059946-0.11164-1.4267068-0.6241837-1.9272642L10.6804285,6.486475
	c-1.0757351-1.0505762-0.479846-2.8786302,1.0083666-3.0934377l0.7270765-0.1049461
	c0.7090731-0.1023469,1.322381-0.5470521,1.6400537-1.1891913l0.3257399-0.6584439
	c0.6667366-1.3477311,2.5894594-1.345906,3.2536364,0.0030886l0.3244877,0.6590616
	c0.3164539,0.6427412,0.9289169,1.0886102,1.6377945,1.1923034l0.7268753,0.1063261
	C21.8122616,3.6188684,22.4046783,5.44805,21.326952,6.496582l-0.5265331,0.5122685
	c-0.5134945,0.4995828-0.7482796,1.2198501-0.6278419,1.9260755l0.1234951,0.7241573
	C20.5488472,11.1413183,18.9922581,12.26999,17.6620083,11.5690241z"/>
<circle fill="none" stroke="#E1DCE1" stroke-width="0.25" stroke-miterlimit="10" cx="16.0049133" cy="6.5" r="3.5694373"/>
<polygon fill="#FFE159" points="15.9854517,0.6565574 17.7006989,4.1320291 21.5361099,4.6893468 18.7607803,7.3946247 
	19.415947,11.2145376 15.9854517,9.4110193 12.5549564,11.2145376 13.2101221,7.3946247 10.4347935,4.6893468 14.2702036,4.1320291 
	"/>
<polygon fill="#E7CB51" points="17.716589,4.1153212 21.587532,4.6778021 18.7864914,7.4081416 19.4477272,11.263443 
	15.9854517,9.4432163 12.5231752,11.263443 "/>
</svg>
