<?xml version="1.0" encoding="utf-8"?>
<!-- Generator: Adobe Illustrator 24.0.2, SVG Export Plug-In . SVG Version: 6.00 Build 0)  -->
<!DOCTYPE svg PUBLIC "-//W3C//DTD SVG 1.0//EN" "http://www.w3.org/TR/2001/REC-SVG-20010904/DTD/svg10.dtd" [
	<!ENTITY ns_extend "http://ns.adobe.com/Extensibility/1.0/">
	<!ENTITY ns_ai "http://ns.adobe.com/AdobeIllustrator/10.0/">
	<!ENTITY ns_graphs "http://ns.adobe.com/Graphs/1.0/">
	<!ENTITY ns_vars "http://ns.adobe.com/Variables/1.0/">
	<!ENTITY ns_imrep "http://ns.adobe.com/ImageReplacement/1.0/">
	<!ENTITY ns_sfw "http://ns.adobe.com/SaveForWeb/1.0/">
	<!ENTITY ns_custom "http://ns.adobe.com/GenericCustomNamespace/1.0/">
	<!ENTITY ns_adobe_xpath "http://ns.adobe.com/XPath/1.0/">
]>
<svg version="1.0" id="Слой_1" xmlns:x="&ns_extend;" xmlns:i="&ns_ai;" xmlns:graph="&ns_graphs;"
	 xmlns="http://www.w3.org/2000/svg" xmlns:xlink="http://www.w3.org/1999/xlink" x="0px" y="0px" width="32px" height="13px"
	 viewBox="0 0 32 13" enable-background="new 0 0 32 13" xml:space="preserve">
<metadata>
	<sfw  xmlns="&ns_sfw;">
		<slices></slices>
		<sliceSourceBounds  bottomLeftOrigin="true" height="16383" width="16383" x="-8175" y="-8198"></sliceSourceBounds>
	</sfw>
</metadata>
<path fill="#333F50" stroke="#D2D2D2" stroke-width="0.25" stroke-miterlimit="10" d="M6.6692953,0.473495h18.6712379
	c3.3153553,0,6.0029831,2.6876278,6.0029831,6.002985v0.0000119c0,3.3153572-2.6876278,6.002985-6.0029831,6.002985H6.6692953
	c-3.3153567,0-6.0029845-2.6876278-6.0029845-6.002985V6.47648C0.6663106,3.1611228,3.3539386,0.473495,6.6692953,0.473495z"/>
<path fill="#333B47" d="M6.6424661,0.674866c0.4223957,1.7701552,1.1466136,3.0249383,1.8723855,3.9216688
	c3.867259,4.7782078,12.6713114,5.4354973,22.0707855,1.903471c0,0.3879547-0.0387573,2.4516029-1.7061405,4.118988
	c-1.0541401,1.054141-2.5104218,1.7061405-4.118988,1.7061405H6.6424661c-3.2171297,0-5.8251286-2.6079988-5.8251286-5.8251286
	V6.4999943C0.8173378,3.2828648,3.4253364,0.674866,6.6424661,0.674866z"/>
<circle fill="none" stroke="#E1DCE1" stroke-width="0.5" stroke-miterlimit="10" cx="16.0049133" cy="6.4764857" r="4.6782179"/>
<path fill="#FFE159" d="M4.8739533,3.8100209C4.6890779,3.5006521,4.2561221,3.4503021,4.0129843,3.7163317
	C3.5477533,4.2253637,2.94315,5.117835,2.8958304,6.3583183C2.8446949,7.6988406,3.473206,8.6893663,3.9684041,9.2562342
	c0.2628725,0.3009195,0.7459543,0.2528315,0.9611881-0.0838118L4.980309,9.0709963
	c0.1050439-0.2100735,0.0660791-0.4662266-0.1039333-0.6282768C4.507638,8.0912504,3.9765143,7.415658,3.9702761,6.4361768
	C3.9668119,5.8922706,4.1263833,5.4404192,4.3272595,5.087985c0.152554-0.267653,0.3289299-0.4779668,0.4758072-0.6277142
	c0.1699486-0.1732697,0.1953874-0.4419117,0.0708871-0.650249L4.8739533,3.8100209z"/>
<path fill="#FFE159" d="M27.2511673,3.7900209c0.1736889-0.3093688,0.5804501-0.3597188,0.8088779-0.0936892
	c0.4370842,0.509032,1.0051079,1.4015033,1.0495644,2.6419866c0.0480423,1.3405223-0.5424442,2.3310485-1.0076809,2.8979163
	c-0.2469692,0.3009195-0.7008228,0.2528315-0.9030342-0.0838118l-0.0476494-0.1014261
	C27.052557,8.8409233,27.0891647,8.5847702,27.2488899,8.42272c0.3464298-0.351469,0.8454189-1.0270619,0.8512802-2.0065432
	c0.0032539-0.5439062-0.1466637-0.9957576-0.3353863-1.3481917c-0.1433239-0.267653-0.3090286-0.4779668-0.4470196-0.6277142
	c-0.1596661-0.1732697-0.1835651-0.4419117-0.0665989-0.650249L27.2511673,3.7900209z"/>
<path fill="#FFE159" d="M7.0462976,7.583931L6.9155273,6.0250463C6.9047208,5.8962269,7.0014448,5.7834902,7.1304102,5.7745891
	l4.5805206-0.3161402c0.0573063-0.0039554,0.1110992-0.0290618,0.1509361-0.070446l0.3657761-0.379981
	c0.0445175-0.0462456,0.1062288-0.0719457,0.1704121-0.0709686l3.908658,0.0595012
	c0.0747242,0.0011377,0.1454067-0.0338454,0.1898212-0.0939484l0.0692234-0.0936737
	c0.0445023-0.0602207,0.1153679-0.0952153,0.190237-0.0939417l1.2711468,0.0216274
	c0.0567856,0.0009661,0.102066,0.0477304,0.101202,0.1045184v0.0000005c-0.0008698,0.0571413,0.04496,0.1040592,0.1021061,0.1045294
	l2.1120739,0.0173807c0.0369053,0.0003037,0.0732059,0.0094218,0.105875,0.0265946l0.2796516,0.1470017
	c0.0321846,0.0169182,0.0678997,0.026022,0.1042557,0.0265756l1.2181072,0.0185432
	c0.049921,0.0007596,0.098259,0.0176282,0.1378155,0.0480909l0.5063667,0.3899736
	c0.0395565,0.0304632,0.0878944,0.0473313,0.1378155,0.0480914l0.9221611,0.0140376
	c0.0801163,0.0012197,0.1551704-0.0390491,0.1984577-0.1064744l0.102911-0.1603041
	c0.043663-0.0805016,0.0874367-0.1694942,0.1290398-0.2668915c0.0283489-0.0663667,0.053112-0.1305976,0.074789-0.192112
	c0.3276062,0.0054789,0.4142666-0.009583,0.408638,0.0340276c0.003397,0.0232153-0.0219727,0.6725483-0.0219727,0.6725483
	c0.0056419,0.1016788-0.0110016,0.0930376,0.0945415,0.1041889l0.046032,0.0037732
	c0.0189724,0.0771408,0.006422,0.2586827-0.0009689,0.304153L24.6501064,6.077539
	c-0.0304928-0.0172396-0.0547905,0.1254935-0.1215611,0.2872214c-0.1610775-0.0080047-0.320816-0.0344868-0.3986225-0.0442028
	c-0.0361919-0.001761-0.1061821-0.1694789-0.1081696-0.1732707c-0.0070496-0.0134444-0.0106907-0.0205512-0.0106964-0.0205626
	c-0.0058899-0.0114913-0.0065441-0.0130525-0.0085258-0.0163736c-0.0000057-0.0000114-0.0054035-0.0122395-0.0181961-0.0222673
	c-0.0531712-0.041676-0.1213169-0.0444279-0.1718922-0.0397868l-0.9852791-0.0149989
	c-0.0501156-0.0007629-0.0991249,0.0147491-0.1396751,0.0442076l-0.3199482,0.2324371
	c-0.0102272,0.0074301-0.0529327,0.0620556-0.0900745,0.0641904c-0.1063309,0.0061102-0.3201962-0.0120878-0.340765-0.0219631
	l-0.1291866-0.0906177c-0.0302162-0.0145078-0.0632229-0.0222855-0.0967369-0.0227957l-1.002924-0.0152674
	c-0.0762863-0.0011616-0.1483173,0.0350599-0.1928806,0.0969896l-0.003849,0.0053511
	c-0.0445633,0.0619297-0.1165943,0.0981507-0.1928806,0.0969896l-3.8922997-0.0592618
	c-0.136879-0.0020843-0.2455006,0.1136374-0.2346478,0.2501006c0.0260334,0.3273654,0.1230507,0.8344731,0.4595528,1.3435893
	c0.2868309,0.4339633,0.6374989,0.7027087,0.8956032,0.8593583c0.1195755,0.0725737,0.1457729,0.2345972,0.0573826,0.3430052
	l-0.4825974,0.5918865c-0.0773792,0.0949011-0.2147732,0.113925-0.3141651,0.0424089
	c-0.342968-0.2467785-0.8138876-0.6560965-1.2133951-1.2807293c-0.3752851-0.586762-0.5495872-1.1478066-0.6347151-1.5448523
	c-0.0242748-0.1132236-0.1293659-0.1896896-0.2447586-0.1800251c-0.3636599,0.030458-1.1083584,0.0928273-1.4186039,0.1188102
	c-0.0867586,0.0072665-0.1612749,0.0624962-0.194231,0.1430807l-0.4484015,1.0964322
	c-0.0500927,0.122489-0.1924467,0.1781902-0.3123674,0.1222258l-0.4788456-0.2234697
	c-0.1182489-0.0551853-0.1675997-0.1971073-0.1091013-0.3137531l0.4505539-0.8984094
	c0.0409861-0.081727,0.0300665-0.1799164-0.027874-0.2506413l-0.1340876-0.1636734
	c-0.0604305-0.0737643-0.1598902-0.1029596-0.2506037-0.0735617L7.3485441,7.7849278
	C7.2065701,7.8309383,7.0587735,7.7326522,7.0462976,7.583931z"/>
</svg>
