<?xml version="1.0" encoding="utf-8"?>
<!-- Generator: Adobe Illustrator 24.0.2, SVG Export Plug-In . SVG Version: 6.00 Build 0)  -->
<!DOCTYPE svg PUBLIC "-//W3C//DTD SVG 1.0//EN" "http://www.w3.org/TR/2001/REC-SVG-20010904/DTD/svg10.dtd" [
	<!ENTITY ns_extend "http://ns.adobe.com/Extensibility/1.0/">
	<!ENTITY ns_ai "http://ns.adobe.com/AdobeIllustrator/10.0/">
	<!ENTITY ns_graphs "http://ns.adobe.com/Graphs/1.0/">
	<!ENTITY ns_vars "http://ns.adobe.com/Variables/1.0/">
	<!ENTITY ns_imrep "http://ns.adobe.com/ImageReplacement/1.0/">
	<!ENTITY ns_sfw "http://ns.adobe.com/SaveForWeb/1.0/">
	<!ENTITY ns_custom "http://ns.adobe.com/GenericCustomNamespace/1.0/">
	<!ENTITY ns_adobe_xpath "http://ns.adobe.com/XPath/1.0/">
]>
<svg version="1.0" id="Слой_1" xmlns:x="&ns_extend;" xmlns:i="&ns_ai;" xmlns:graph="&ns_graphs;"
	 xmlns="http://www.w3.org/2000/svg" xmlns:xlink="http://www.w3.org/1999/xlink" x="0px" y="0px" width="32px" height="13px"
	 viewBox="0 0 32 13" enable-background="new 0 0 32 13" xml:space="preserve">
<metadata>
	<sfw  xmlns="&ns_sfw;">
		<slices></slices>
		<sliceSourceBounds  bottomLeftOrigin="true" height="16383" width="16383" x="-8175" y="-8198"></sliceSourceBounds>
	</sfw>
</metadata>
<path fill="#110C10" stroke="#FFE159" stroke-width="0.25" stroke-miterlimit="10" d="M6.6692953,0.473495h18.6712379
	c3.3153553,0,6.0029831,2.6876278,6.0029831,6.002985v0.0000119c0,3.3153572-2.6876278,6.002985-6.0029831,6.002985H6.6692953
	c-3.3153567,0-6.0029845-2.6876278-6.0029845-6.002985V6.47648C0.6663106,3.1611228,3.3539386,0.473495,6.6692953,0.473495z"/>
<path fill="#181317" d="M6.6424661,0.674866C6.5367432,1.6867747,6.5544348,2.9382977,7.2738495,3.4144616
	c0.5442233,0.3602087,1.1168871,0.0297425,2.1345663,0.0706868C10.9604568,3.5475919,12.0999107,4.4156442,12.75,4.9108911
	c2.2372341,1.7043562,2.2631826,3.9490733,3.4336624,3.9822974c0.3431892,0.0097418,0.8557129-0.168623,1.5033607-1.1384587
	c1.8659573,1.0894952,3.6180172,2.115519,4.9227772,2.9183125c0.4679184,0.2879009,0.8783092,0.5470915,1.2157955,0.7702036
	c0.8333702,0.5509415,1.2221889,0.8818884,0.9349136,0.8818884H6.6424661c-3.2171297,0-5.8251286-2.6079988-5.8251286-5.8251286
	V6.4999943C0.8173378,3.2828648,3.4253364,0.674866,6.6424661,0.674866z"/>
<path fill="#110C10" d="M6.4338121,6.2698021C6.3788619,6.7957506,6.3880572,7.4462409,6.7619796,7.6937318
	c0.2828646,0.1872215,0.580512,0.0154586,1.1094599,0.0367398c0.8066878,0.0324554,1.3989291,0.483634,1.7368188,0.7410431
	c1.1628227,0.8858538,1.1763096,2.0525665,1.7846766,2.0698347c0.1783762,0.0050631,0.4447651-0.0876436,0.7813854-0.5917244
	c0.9698486,0.5662756,1.880497,1.0995607,2.5586586,1.516819c0.2432051,0.1496391,0.4565096,0.2843561,0.6319208,0.400321
	c0.4331512,0.2863569,0.6352434,0.4583693,0.4859295,0.4583693h-9.417017c-1.6721325,0-3.0276632-1.3555307-3.0276632-3.0276632
	V9.2974653C3.4061489,7.6253328,4.7616796,6.2698021,6.4338121,6.2698021z"/>
<path fill="#181317" d="M25.9286613,8.3663549c0.0683727-0.6682081,0.0549335-1.4944358-0.4206924-1.807786
	c-0.3598022-0.2370434-0.7374096-0.0180645-1.4093361-0.0436645c-1.0247421-0.039041-1.7782269-0.6105242-2.2081127-0.9365706
	c-1.479414-1.1220641-1.4997025-2.6039848-2.2724972-2.6242726c-0.2265873-0.0059488-0.564703,0.1125283-0.9909153,0.7537229
	c-1.2334328-0.7166572-2.3915825-1.3915708-3.2541113-1.9197372c-0.3093233-0.1894131-0.5806274-0.3599528-0.8037491-0.5067762
	c-0.5509644-0.3625582-0.8081274-0.5805012-0.6184683-0.5809054l11.9614906-0.0254905
	c2.1239414-0.0045263,3.8494053,1.7135993,3.8539314,3.8375411v0.0000076
	C29.7707272,6.6363649,28.0526028,8.3618288,25.9286613,8.3663549z"/>
<path fill="#E4C950" d="M15.4907303,7.8996534c-0.579464-0.2996664-1.200799-0.5993505-1.8635025-0.8913732
	c-0.7503109-0.3306293-1.4727459-0.6157851-2.1587667-0.8623552c0.0484362-0.0664907,0.1109047-0.1689081,0.1521301-0.3055067
	c0.0577269-0.1912742,0.0456085-0.3561435,0.0315552-0.4491353c-0.0336857,0.0924816-0.1054144,0.2516699-0.2547045,0.4025364
	c-0.1288528,0.1302123-0.2628756,0.2010622-0.3488979,0.2383184c-0.123497-0.0016861-0.2798796-0.0156188-0.4550533-0.0608954
	c-0.2501841-0.0646653-0.4420004-0.168273-0.5698357-0.2514954c0.0782394-0.0387998,0.2764788-0.150166,0.4102917-0.388114
	c0.1107512-0.1969376,0.1223373-0.3827243,0.1221008-0.4712148c-0.0776501,0.1029382-0.2108774,0.2525072-0.4157715,0.377768
	c-0.2863293,0.175046-0.5615978,0.2102985-0.7040873,0.2183533C9.313962,5.428947,9.1678982,5.3850594,9.010354,5.3134108
	C8.780283,5.2087784,8.605938,5.0814166,8.4844065,4.9767232c0.2753248-0.0864944,0.5985222-0.2135477,0.941534-0.403657
	c0.2105961-0.1167197,0.3950357-0.2385716,0.5541677-0.3560619c-0.2845078,0.088398-0.6169643,0.1717968-0.9917154,0.2305636
	C8.6778011,4.496273,8.3908253,4.5197992,8.134387,4.5282116C8.0054426,4.4942751,7.8116498,4.4261761,7.6115222,4.2825103
	C7.3476381,4.0930724,7.2042093,3.8666267,7.1351333,3.7373435c0.2830663,0.0307043,0.6249681,0.0441978,1.0097194,0.0100923
	c0.2520819-0.0223455,0.480197-0.0613685,0.680788-0.1067779C8.5317183,3.6234446,8.1057873,3.5653355,7.6276588,3.3784471
	C7.1723409,3.200475,6.8325782,2.9693882,6.6081886,2.7901394c-0.048048-0.1451223-0.0971441-0.3394058-0.115406-0.5721722
	C6.4750204,1.9915617,6.4917798,1.7968998,6.5153351,1.6485049c0.4621387,0.3357677,1.1346941,0.745664,2.0123062,1.0445753
	c1.2513723,0.4262135,2.3498459,0.4327028,3.0238628,0.3825078c0.1534719,0.300956,0.5307875,0.9362166,1.287878,1.3891742
	c0.4585218,0.2743282,0.8935032,0.3843617,1.1865206,0.4324703c0.0222511-0.0550313-0.0094099-1.2477927,0.0227985-1.3213418
	c0.0281706-0.064327,0.0651989-0.1095047,0.0914936-0.1368971c0.0635538-0.0593476,0.2005978-0.1708746,0.4079981-0.2215579
	c0.2805977-0.0685711,0.5093355,0.0183721,0.5861464,0.0515764c0.1010475,0.0704727,0.30616,0.2336671,0.4474545,0.5211272
	c0.1376762,0.2801001,0.1445379,0.5353148,0.1399117,0.6581771C15.6447144,5.598762,15.5677223,6.7492075,15.4907303,7.8996534z"/>
<path fill="#E4C950" d="M17.17836,8.3789015c-0.6502323-0.0526953-1.3390951-0.0892401-2.0631618-0.1027451
	c-0.8197851-0.0152912-1.5962992,0.0006008-2.3243237,0.0380268c0.0190077-0.0800362,0.0370874-0.1986313,0.0223751-0.3405542
	c-0.0206013-0.1987305-0.095437-0.3461361-0.1443052-0.4264903c0.0046339,0.0983162-0.0000687,0.2728548-0.0795317,0.4696641
	c-0.0685854,0.1698656-0.1648598,0.2869682-0.2298269,0.3545494c-0.1145716,0.0461273-0.2642069,0.0936556-0.4432783,0.119525
	C11.6605558,8.5278234,11.4436111,8.5063114,11.2935562,8.4789c0.0571918-0.066,0.1970596-0.2452707,0.2286224-0.5164332
	c0.026125-0.2244272-0.0349207-0.400281-0.0693054-0.4818182c-0.0318842,0.1249371-0.0970306,0.3143473-0.2376728,0.5090055
	c-0.1965389,0.2720256-0.4368505,0.4108262-0.5651808,0.4732728c-0.1234026,0.021739-0.2750854,0.0376511-0.4480762,0.0323868
	c-0.2526293-0.0076876-0.4626293-0.0578575-0.61516-0.1075087c0.2205791-0.1860914,0.4696579-0.4280801,0.7126694-0.7358856
	c0.1491995-0.1889811,0.2722893-0.3725972,0.3737173-0.5424185c-0.2283144,0.1913934-0.5027905,0.396688-0.8257904,0.5955911
	C9.5796776,7.8699408,9.3240385,8.0024452,9.0907345,8.1092176C8.9586859,8.1276989,8.7536278,8.1397047,8.5135489,8.0844498
	c-0.3165646-0.0728607-0.5363026-0.226368-0.6499391-0.3189554c0.2729707-0.0809698,0.5935693-0.2005324,0.9353175-0.380548
	c0.2239065-0.1179428,0.4192648-0.2420158,0.5867682-0.3613534C9.1079197,7.1211991,8.6925812,7.2320504,8.1793709,7.2442622
	c-0.4887261,0.0116291-0.891366-0.070354-1.1675639-0.149065C6.9114523,6.9798799,6.7911496,6.8196187,6.6844316,6.6119533
	C6.5806308,6.4099622,6.5209303,6.2239246,6.485363,6.0779419c0.5559435,0.1312966,1.334609,0.2497306,2.2595778,0.1866126
	c1.3188972-0.0899982,2.3346949-0.5081382,2.9370642-0.814682c0.2577715,0.2183623,0.8511066,0.6586781,1.7243767,0.7841949
	c0.5288858,0.0760174,0.972621,0.0095701,1.2614908-0.0591869c-0.0007219-0.0593553-0.4904594-1.1473994-0.4891453-1.2276812
	c0.0011492-0.0702157,0.0178623-0.1261868,0.0315418-0.1616073c0.0357113-0.0792842,0.1190662-0.235076,0.2908144-0.3619075
	c0.2323637-0.1715937,0.4769325-0.1797094,0.5606079-0.1787372c0.1204224,0.0259929,0.3726387,0.0973382,0.613966,0.3079524
	c0.2351484,0.2052221,0.3400173,0.4379969,0.3831882,0.5531178C16.4320164,6.1969786,16.8051872,7.2879395,17.17836,8.3789015z"/>
<path fill="#FFE159" d="M16.5634766,8.510603c-0.7271452-0.2213478-1.5022764-0.433897-2.3231983-0.6289539
	c-0.9294462-0.2208443-1.8173704-0.3954511-2.6554394-0.5335107c0.0415001-0.0863962,0.0915136-0.2169175,0.1099834-0.3821335
	c0.0258646-0.2313461-0.022748-0.4177232-0.0584393-0.5213256c-0.0191221,0.1130733-0.0677891,0.3106003-0.2070894,0.5149274
	c-0.1202307,0.1763544-0.2588902,0.2857728-0.349618,0.3465843c-0.1418743,0.0240793-0.3240137,0.0410519-0.5342875,0.0260634
	c-0.3003149-0.0214067-0.5419464-0.0997334-0.705966-0.1681752c0.0814848-0.0609412,0.2851982-0.2303138,0.3884201-0.5311713
	c0.085434-0.2490039,0.0595798-0.464344,0.0406704-0.5656986c-0.0673008,0.1343155-0.188467,0.3337727-0.3968792,0.5204697
	C9.5803881,6.8485785,9.2723732,6.9469538,9.1107864,6.986196C8.9649105,6.9803209,8.7882872,6.9607935,8.5926609,6.9118714
	C8.3069773,6.8404284,8.0803633,6.7312016,7.9190445,6.6368279c0.297287-0.1571078,0.6408892-0.3707762,0.9939165-0.6608758
	C9.1297054,5.797842,9.3153963,5.61936,9.4730053,5.4512067C9.165597,5.6124296,8.8021889,5.7780232,8.3851261,5.9242978
	C8.0394678,6.0455294,7.7155666,6.1329331,7.4234776,6.1965861C7.268568,6.1848559,7.0321507,6.1476364,6.7725577,6.025157
	C6.4302635,5.8636546,6.2182083,5.6343722,6.1118212,5.5007715C6.4426641,5.4763355,6.8373027,5.419785,7.271019,5.299664
	c0.284163-0.0787015,0.5373487-0.1714664,0.7576485-0.2657518c-0.3404412,0.042182-0.8407698,0.0653048-1.4280372-0.048151
	C6.0413809,4.8777184,5.6033621,4.6844707,5.3084722,4.5263257C5.222846,4.3701453,5.1256633,4.1578498,5.0557103,3.8949614
	c-0.0680413-0.2557046-0.0898366-0.4823043-0.0941-0.6573167c0.6003017,0.2874298,1.4573412,0.6154864,2.5259852,0.7731719
	c1.5237627,0.2248416,2.7839069,0.0009112,3.5457134-0.1985741c0.2392578,0.3125505,0.8054399,0.9610453,1.7684193,1.3206429
	c0.5832176,0.2177849,1.1048536,0.2522583,1.4507647,0.2456708c0.0139065-0.067749-0.2736006-1.4279068-0.252182-1.5189734
	c0.0187321-0.0796475,0.0516491-0.1392176,0.0760107-0.1761458c0.0603285-0.0813944,0.193881-0.2380621,0.4208727-0.3398254
	c0.3071041-0.1376791,0.5875349-0.086226,0.6825495-0.0643544c0.1306372,0.0594738,0.4000549,0.2032824,0.6225157,0.5029325
	c0.2167645,0.2919779,0.2783813,0.5829921,0.2989578,0.7247586C16.2553043,5.8414998,16.4093895,7.1760511,16.5634766,8.510603z"/>
<path fill="#FFE159" d="M16.5451679,8.5703707c0.579464-0.2996664,1.200798-0.59935,1.8635025-0.8913732
	c0.7503109-0.3306289,1.4727459-0.6157846,2.1587658-0.8623548c-0.0484352-0.0664911-0.1109047-0.1689086-0.1521301-0.3055072
	c-0.0577259-0.1912737-0.0456085-0.3561435-0.0315533-0.4491353c0.0336838,0.0924821,0.1054134,0.2516704,0.2547035,0.4025364
	c0.1288528,0.1302128,0.2628746,0.2010627,0.3488979,0.2383189c0.123497-0.0016866,0.2798786-0.0156188,0.4550533-0.0608954
	c0.2501831-0.0646653,0.4419994-0.1682734,0.5698357-0.2514958c-0.0782394-0.0387998-0.2764797-0.1501656-0.4102917-0.388114
	c-0.1107521-0.1969371-0.1223373-0.3827243-0.1221008-0.4712148c0.0776501,0.1029382,0.2108765,0.2525072,0.4157715,0.3777685
	c0.2863293,0.175046,0.5615978,0.2102981,0.7040863,0.2183533C22.7219353,6.0996642,22.868,6.0557771,23.0255432,5.984128
	c0.230072-0.1046324,0.404417-0.2319942,0.5259476-0.3366871c-0.2753239-0.0864949-0.5985222-0.2135482-0.941534-0.403657
	c-0.2105961-0.1167202-0.3950348-0.2385721-0.5541668-0.3560624c0.2845078,0.088398,0.6169643,0.1717968,0.9917145,0.2305636
	c0.3105927,0.0487051,0.5975685,0.0722313,0.8540058,0.0806441c0.1289444-0.0339365,0.3227367-0.102036,0.5228653-0.2457018
	c0.2638836-0.1894379,0.4073124-0.4158835,0.4763889-0.5451665c-0.2830658,0.030704-0.6249676,0.044198-1.0097198,0.0100923
	c-0.2520809-0.0223455-0.480196-0.0613685-0.680788-0.1067781c0.2939224-0.0172133,0.7198544-0.0753222,1.1979828-0.2622108
	c0.4553165-0.1779718,0.7950802-0.4090588,1.0194702-0.5883074c0.048048-0.1451225,0.0971432-0.3394058,0.115406-0.5721722
	c0.0177612-0.2264056,0.0010033-0.4210675-0.0225525-0.5694625C25.058424,2.65499,24.3858681,3.0648863,23.5082569,3.3637974
	c-1.2513733,0.4262137-2.3498459,0.432703-3.0238628,0.382508c-0.1534729,0.3009558-0.5307884,0.9362168-1.287878,1.3891745
	c-0.4585228,0.2743278-0.8935032,0.3843613-1.1865215,0.4324698c-0.0222511-0.0550313,0.0094109-1.2477927-0.0227985-1.3213415
	c-0.0281696-0.0643268-0.0651989-0.1095047-0.0914936-0.1368971c-0.0635529-0.0593476-0.2005978-0.1708746-0.4079971-0.2215581
	c-0.2805977-0.0685709-0.5093346,0.0183721-0.5861473,0.0515766c-0.1010475,0.0704727-0.3061581,0.2336674-0.4474525,0.5211272
	c-0.1376781,0.2800999-0.1445389,0.535315-0.1399136,0.6581769C16.3911839,6.2694793,16.4681759,7.4199247,16.5451679,8.5703707z"/>
<path fill="#FFE159" d="M14.8679781,8.447257c0.6502323-0.0526953,1.3390951-0.0892401,2.0631609-0.1027451
	c0.8197861-0.0152912,1.5963001,0.0006008,2.3243237,0.0380268c-0.0190067-0.0800362-0.0370865-0.1986313-0.0223751-0.3405542
	c0.0206013-0.1987305,0.095438-0.3461361,0.1443062-0.4264903c-0.0046349,0.0983162,0.0000687,0.2728548,0.0795307,0.4696641
	c0.0685863,0.1698656,0.1648598,0.2869682,0.2298279,0.3545494c0.1145706,0.0461273,0.2642059,0.0936556,0.4432774,0.119525
	c0.2557526,0.0369463,0.4726963,0.0154343,0.6227512-0.0119772c-0.0571918-0.065999-0.1970596-0.2452707-0.2286224-0.5164328
	c-0.026125-0.2244277,0.0349216-0.4002814,0.0693054-0.4818182c0.0318851,0.1249366,0.0970306,0.3143468,0.2376728,0.5090055
	c0.1965389,0.2720251,0.4368515,0.4108257,0.5651817,0.4732723c0.1234016,0.021739,0.2750854,0.0376511,0.4480762,0.0323868
	c0.2526283-0.0076876,0.4626293-0.0578575,0.61516-0.1075077c-0.2205791-0.1860924-0.4696579-0.4280815-0.7126694-0.7358866
	c-0.1492004-0.1889811-0.2722893-0.3725972-0.3737183-0.542418c0.2283154,0.1913929,0.5027905,0.3966875,0.8257923,0.5955906
	c0.2677002,0.1648488,0.5233402,0.2973542,0.7566433,0.4041257c0.1320496,0.0184813,0.3371086,0.0304871,0.5771866-0.0247679
	c0.3165646-0.0728607,0.5363026-0.226368,0.6499386-0.3189554c-0.2729702-0.0809698-0.5935688-0.2005324-0.935318-0.3805475
	c-0.2239056-0.1179428-0.4192638-0.2420163-0.5867672-0.3613534c0.2777748,0.0976062,0.6931133,0.208457,1.2063236,0.2206688
	c0.4887276,0.0116291,0.891367-0.070354,1.1675644-0.149065c0.1003551-0.1153173,0.2206573-0.2755785,0.3273754-0.4832439
	c0.1038017-0.2019911,0.1635017-0.3880286,0.1990681-0.5340114c-0.5559425,0.1312971-1.3346081,0.2497306-2.2595768,0.1866126
	c-1.3188972-0.0899982-2.3346958-0.5081382-2.9370651-0.8146815c-0.2577705,0.2183619-0.8511047,0.6586776-1.7243767,0.7841945
	c-0.5288849,0.0760174-0.97262,0.0095701-1.2614899-0.0591869c0.0007229-0.0593553,0.4904594-1.1473994,0.4891453-1.2276812
	c-0.0011501-0.0702152-0.0178623-0.1261868-0.0315418-0.1616073c-0.0357113-0.0792842-0.1190662-0.235076-0.2908154-0.361907
	c-0.2323627-0.1715941-0.4769325-0.1797099-0.5606079-0.1787372c-0.1204224,0.0259924-0.3726387,0.0973377-0.613966,0.3079519
	c-0.2351475,0.2052221-0.3400173,0.4379973-0.3831873,0.5531182C15.6143208,6.2653341,15.2411499,7.3562951,14.8679781,8.447257z"/>
<path fill="#E4C950" d="M15.4828615,8.5789585c0.7271452-0.2213478,1.5022764-0.433897,2.3231974-0.6289539
	c0.9294472-0.2208443,1.8173714-0.3954511,2.6554394-0.5335107c-0.0415001-0.0863962-0.0915127-0.2169175-0.1099834-0.3821335
	c-0.0258636-0.2313461,0.0227489-0.4177232,0.0584393-0.5213256c0.0191231,0.1130733,0.0677891,0.3106003,0.2070904,0.5149274
	c0.1202297,0.1763549,0.2588902,0.2857728,0.349617,0.3465843c0.1418743,0.0240793,0.3240147,0.0410519,0.5342884,0.0260634
	c0.3003159-0.0214067,0.5419464-0.0997334,0.705965-0.1681752c-0.0814838-0.0609412-0.2851982-0.2303138-0.3884201-0.5311708
	c-0.085434-0.2490044-0.0595798-0.4643445-0.0406704-0.5656986c0.0673008,0.1343155,0.188467,0.3337727,0.3968811,0.5204697
	c0.2912445,0.2608991,0.5992584,0.3592744,0.7608452,0.3985171c0.1458759-0.0058756,0.3225002-0.0254025,0.5181255-0.0743251
	c0.2856846-0.0714431,0.5122986-0.1806693,0.6736164-0.2750435c-0.297287-0.1571078-0.6408882-0.3707757-0.9939156-0.6608758
	c-0.2167454-0.1781096-0.4024353-0.3565922-0.5600452-0.5247455c0.3074093,0.1612229,0.6708164,0.3268166,1.0878792,0.4730916
	c0.3456593,0.1212311,0.6695595,0.2086353,0.9616489,0.2722878c0.1549091-0.0117302,0.3913269-0.0489492,0.650919-0.1714292
	c0.3422947-0.1615024,0.5543499-0.3907847,0.660738-0.5243855c-0.330843-0.024436-0.725481-0.0809865-1.1591988-0.2011075
	c-0.2841625-0.0787015-0.5373478-0.1714659-0.7576485-0.2657518c0.3404408,0.042182,0.8407707,0.0653048,1.4280376-0.048151
	c0.5592499-0.1080427,0.9972687-0.3012905,1.2921581-0.4594355c0.0856266-0.1561804,0.1828079-0.3684754,0.2527618-0.6313641
	c0.0680408-0.2557049,0.0898361-0.4823046,0.094099-0.6573167c-0.6003017,0.2874296-1.4573402,0.6154864-2.5259838,0.7731717
	c-1.5237637,0.2248416-2.7839069,0.0009112-3.5457134-0.1985738c-0.2392578,0.3125503-0.8054409,0.9610455-1.7684193,1.3206427
	c-0.5832176,0.2177849-1.1048546,0.2522583-1.4507656,0.2456708c-0.0139065-0.067749,0.2736015-1.4279065,0.252182-1.5189731
	c-0.0187321-0.0796478-0.0516491-0.1392179-0.0760098-0.1761458c-0.0603294-0.0813947-0.193882-0.2380621-0.4208736-0.3398256
	c-0.3071041-0.1376791-0.587534-0.086226-0.6825485-0.0643542c-0.1306381,0.0594738-0.4000549,0.2032821-0.6225166,0.5029323
	c-0.2167645,0.2919779-0.2783813,0.5829926-0.2989578,0.7247586C15.7910337,5.9098554,15.6369476,7.2444067,15.4828615,8.5789585z"
	/>
<circle fill="#FFE159" cx="16.0104389" cy="5.8541241" r="3.0666883"/>
<polygon fill="#E4C950" points="11.9071665,11.6302128 11.2574253,11.2864923 10.6059284,11.626873 10.7320452,10.9027176 
	10.2070007,10.3882904 10.9346857,10.2844582 11.2616873,9.6261435 11.5853052,10.2861271 12.3124475,10.3936939 
	11.7847691,10.9054193 "/>
<polygon fill="#E4C950" points="7.6098423,10.728178 6.9601011,10.3844576 6.3086042,10.7248383 6.4347205,10.0006828 
	5.9096756,9.4862556 6.637361,9.3824234 6.9643626,8.7241087 7.2879801,9.3840933 8.0151234,9.4916592 7.4874444,10.0033846 "/>
<polygon fill="#E4C950" points="4.3306112,8.0504723 3.6808701,7.7067518 3.0293732,8.0471325 3.1554897,7.3229766 
	2.6304445,6.8085499 3.35813,6.7047172 3.6851313,6.0464029 4.008749,6.706387 4.7358918,6.8139534 4.2082133,7.3256783 "/>
<polygon fill="#FFE159" points="20.3863564,11.6302128 21.0360985,11.2864923 21.6875954,11.626873 21.5614777,10.9027176 
	22.0865231,10.3882904 21.3588371,10.2844582 21.0318356,9.6261435 20.7082176,10.2861271 19.9810753,10.3936939 
	20.5087547,10.9054193 "/>
<polygon fill="#FFE159" points="24.6836815,10.728178 25.3334217,10.3844576 25.9849186,10.7248383 25.8588028,10.0006828 
	26.3838482,9.4862556 25.6561623,9.3824234 25.3291607,8.7241087 25.0055428,9.3840933 24.2784004,9.4916592 24.8060799,10.0033846 
	"/>
<polygon fill="#FFE159" points="27.9629116,8.0504723 28.6126537,7.7067518 29.2641506,8.0471325 29.1380329,7.3229766 
	29.6630783,6.8085499 28.9353924,6.7047172 28.6083927,6.0464029 28.2847748,6.706387 27.5576305,6.8139534 28.08531,7.3256783 "/>
<circle fill="#023943" cx="15.9876804" cy="5.8541241" r="2.7193291"/>
<path fill="#3D7B74" d="M18.3399467,6.9022942c-0.1629086,0.1469932-0.516983-0.2850952-1.0124989-0.1613216
	c-0.7774868,0.1942058-0.772562,1.474474-1.2811871,1.5456028c-0.6885843,0.0962944-1.6361256-2.1189618-1.3842812-2.293685
	c0.1766491-0.1225538,0.7819815,0.8707857,1.3305511,0.7093201c0.6885452-0.2026653,0.4429512-1.976018,0.9631348-2.0936017
	C17.5492439,4.4744349,18.6730003,6.6017776,18.3399467,6.9022942z"/>
<path fill="#26635F" d="M35.0005417,0.674866"/>
<path fill="#26635F" d="M15.9619179,3.9639757c0.0850601,0.084574-0.0517817,0.4123576-0.2454023,0.6218226
	c-0.0639658,0.0691996-0.0675125,0.0534201-0.1404257,0.1298695c-0.2551289,0.2675033-0.2178373,0.4671412-0.3689327,0.5373917
	c-0.1376972,0.0640206-0.3082838-0.0368681-0.4420691-0.1159921c-0.221343-0.1309075-0.5284729-0.4229426-0.4584446-0.6151323
	c0.0595322-0.1633821,0.3313446-0.0891609,0.8946743-0.2800822C15.6869764,4.0772557,15.8842573,3.886759,15.9619179,3.9639757z"/>
<path fill="#26635F" d="M18.3398247,6.5098934c-0.1629086,0.1469932-0.516983-0.2850947-1.0124989-0.1613216
	c-0.7774868,0.1942058-0.772562,1.4744744-1.2811852,1.5456033c-0.6885862,0.0962944-1.6361275-2.1189618-1.3842821-2.293685
	c0.1766491-0.1225543,0.7819805,0.8707852,1.3305511,0.7093201c0.6885443-0.2026653,0.4429502-1.9760184,0.9631338-2.0936017
	C17.5491219,4.0820346,18.6728802,6.2093773,18.3398247,6.5098934z"/>
</svg>
