<?xml version="1.0" encoding="utf-8"?>
<!-- Generator: Adobe Illustrator 24.0.2, SVG Export Plug-In . SVG Version: 6.00 Build 0)  -->
<!DOCTYPE svg PUBLIC "-//W3C//DTD SVG 1.0//EN" "http://www.w3.org/TR/2001/REC-SVG-20010904/DTD/svg10.dtd" [
	<!ENTITY ns_extend "http://ns.adobe.com/Extensibility/1.0/">
	<!ENTITY ns_ai "http://ns.adobe.com/AdobeIllustrator/10.0/">
	<!ENTITY ns_graphs "http://ns.adobe.com/Graphs/1.0/">
	<!ENTITY ns_vars "http://ns.adobe.com/Variables/1.0/">
	<!ENTITY ns_imrep "http://ns.adobe.com/ImageReplacement/1.0/">
	<!ENTITY ns_sfw "http://ns.adobe.com/SaveForWeb/1.0/">
	<!ENTITY ns_custom "http://ns.adobe.com/GenericCustomNamespace/1.0/">
	<!ENTITY ns_adobe_xpath "http://ns.adobe.com/XPath/1.0/">
]>
<svg version="1.0" id="Слой_1" xmlns:x="&ns_extend;" xmlns:i="&ns_ai;" xmlns:graph="&ns_graphs;"
	 xmlns="http://www.w3.org/2000/svg" xmlns:xlink="http://www.w3.org/1999/xlink" x="0px" y="0px" width="32px" height="13px"
	 viewBox="0 0 32 13" enable-background="new 0 0 32 13" xml:space="preserve">
<metadata>
	<sfw  xmlns="&ns_sfw;">
		<slices></slices>
		<sliceSourceBounds  bottomLeftOrigin="true" height="16383" width="16383" x="-8175" y="-8198"></sliceSourceBounds>
	</sfw>
</metadata>
<path fill="#434345" stroke="#E2E2E2" stroke-width="0.25" stroke-miterlimit="10" d="M6.6692953,0.473495h18.6712379
	c3.3153553,0,6.0029831,2.6876278,6.0029831,6.002985v0.0000119c0,3.3153572-2.6876278,6.002985-6.0029831,6.002985H6.6692953
	c-3.3153567,0-6.0029845-2.6876278-6.0029845-6.002985V6.47648C0.6663106,3.1611228,3.3539386,0.473495,6.6692953,0.473495z"/>
<path fill="#343435" d="M6.6320472,0.6327723h17.9690399c0.2198601-0.0001968,0.2899208,0.0563104,0.3149738,0.1047221
	c0.3085251,0.596189-3.7642441,4.6883512-8.6322231,5.3668079c-1.0457649,0.1457496-2.1452045,0.136323-4.0373039,0.6300426
	c-2.0450621,0.5336332-2.9848881,1.1250262-3.347991,1.3709502c-2.2211661,1.5043612-2.2664962,3.2240686-2.2664962,4.0819311
	c0,0.000001,0,0.000001,0,0.000001c-3.1906714,0-5.7772217-2.5865498-5.7772217-5.7772217V6.4099941
	C0.8548255,3.2193227,3.4413757,0.6327723,6.6320472,0.6327723z"/>
<path fill="#E2E2E2" d="M20.5189266,2.7204597l2.5562439,3.5635774c0.084898,0.1183534,0.0852966,0.2726822,0.0010109,0.3914161
	l-2.5574169,3.6026697c-0.0701351,0.0987997-0.1887112,0.1582155-0.315752,0.1582155h-1.9070702
	c-0.3024578,0-0.4828606-0.3144131-0.3150883-0.5491438l2.2809505-3.1912661c0.0848007-0.1186447,0.0848007-0.2732124,0-0.3918571
	L17.980854,3.1128049c-0.1677723-0.2347305,0.0126305-0.5491433,0.3150883-0.5491433h1.9082451
	C20.3305817,2.5636616,20.4486427,2.6224778,20.5189266,2.7204597z"/>
<path fill="#E2E2E2" d="M15.9910583,2.7204597l2.5562439,3.5635774c0.084898,0.1183534,0.0852966,0.2726822,0.0010109,0.3914161
	l-2.5574188,3.6026697c-0.0701342,0.0987997-0.1887102,0.1582155-0.3157501,0.1582155H13.768074
	c-0.3024578,0-0.4828625-0.3144131-0.3150892-0.5491438l2.2809505-3.1912661c0.0848007-0.1186447,0.0848007-0.2732124,0-0.3918571
	l-2.2809505-3.1912665c-0.1677732-0.2347305,0.0126314-0.5491433,0.3150892-0.5491433h1.9082451
	C15.8027124,2.5636616,15.9207726,2.6224778,15.9910583,2.7204597z"/>
<path fill="#E2E2E2" d="M11.5865498,2.7402618l2.5562449,3.5635774c0.084897,0.1183529,0.0852966,0.2726822,0.0010109,0.3914161
	l-2.5574188,3.6026697c-0.0701342,0.0987997-0.1887102,0.1582155-0.3157501,0.1582155H9.3635664
	c-0.3024578,0-0.4828625-0.3144131-0.3150892-0.5491438l2.2809505-3.1912665c0.0848007-0.1186447,0.0848007-0.273212,0-0.3918567
	L9.0484772,3.132607C8.8807039,2.8978763,9.0611086,2.5834637,9.3635664,2.5834637h1.9082451
	C11.3982038,2.5834637,11.5162649,2.6422799,11.5865498,2.7402618z"/>
<path fill="#E2E2E2" d="M24.8341331,2.7402618l2.5562439,3.5635774c0.084898,0.1183529,0.0852966,0.2726822,0.0010109,0.3914161
	l-2.5574188,3.6026697c-0.0701351,0.0987997-0.1887093,0.1582155-0.3157501,0.1582155h-1.9070702
	c-0.3024578,0-0.4828625-0.3144131-0.3150883-0.5491438l2.2809505-3.1912665c0.0848007-0.1186447,0.0848007-0.273212,0-0.3918567
	L22.2960606,3.132607c-0.1677742-0.2347307,0.0126305-0.5491433,0.3150883-0.5491433h1.9082451
	C24.6457863,2.5834637,24.7638474,2.6422799,24.8341331,2.7402618z"/>
<path fill="#E2E2E2" d="M5.8137116,2.5547385C5.6493216,2.4028094,5.4088354,2.3903918,5.2335854,2.5284548
	c-0.628274,0.4949584-1.9786162,1.8057547-1.9959819,3.9301419c-0.0131497,1.6086469,0.7426636,3.1160216,1.99771,4.0292592
	c0.1758647,0.1279688,0.4190187,0.0970545,0.5741229-0.057435L6.4187779,9.823493
	c0.1980963-0.1973114,0.1874633-0.5302362-0.0247021-0.7109003C5.6448612,8.474617,5.198143,7.5116677,5.1997037,6.4862814
	c0.0015707-1.0317307,0.4567885-1.9978399,1.2147846-2.632761C6.6355815,3.6683259,6.6443768,3.322439,6.4321322,3.1262825
	L5.8137116,2.5547385z"/>
<g>
	<path fill="#E2E2E2" d="M6.8396478,6.951602c-0.1395264-0.0758829-0.1755767-0.2481217-0.080111-0.3827524
		s0.145535-0.372961,0.1112652-0.5296221C6.8365321,5.882566,6.938674,5.7543883,7.0977831,5.7543883
		s0.3736005-0.10815,0.4766479-0.2403331c0.1030469-0.1321826,0.2672744-0.1341858,0.3649502-0.0044503
		s0.3137803,0.237885,0.4802327,0.2403331c0.1664534,0.0024476,0.2766056,0.132628,0.2447834,0.2892895
		c-0.0318213,0.156661,0.0302649,0.3949914,0.137969,0.5296221c0.1077051,0.1346307,0.0656471,0.3048668-0.0934629,0.3783016
		C8.5497942,7.0205865,8.3995857,7.2108502,8.3751078,7.3699598c-0.0244789,0.1591091-0.1656742,0.233212-0.3137684,0.1646724
		c-0.1480937-0.0685396-0.3984404-0.0685396-0.5563259,0C7.3471284,7.6031718,7.1899104,7.5310717,7.1556411,7.3744102
		C7.1213713,7.2177486,6.9791746,7.0274849,6.8396478,6.951602z"/>
</g>
</svg>
