<?xml version="1.0" encoding="utf-8"?>
<!-- Generator: Adobe Illustrator 24.0.2, SVG Export Plug-In . SVG Version: 6.00 Build 0)  -->
<!DOCTYPE svg PUBLIC "-//W3C//DTD SVG 1.0//EN" "http://www.w3.org/TR/2001/REC-SVG-20010904/DTD/svg10.dtd" [
	<!ENTITY ns_extend "http://ns.adobe.com/Extensibility/1.0/">
	<!ENTITY ns_ai "http://ns.adobe.com/AdobeIllustrator/10.0/">
	<!ENTITY ns_graphs "http://ns.adobe.com/Graphs/1.0/">
	<!ENTITY ns_vars "http://ns.adobe.com/Variables/1.0/">
	<!ENTITY ns_imrep "http://ns.adobe.com/ImageReplacement/1.0/">
	<!ENTITY ns_sfw "http://ns.adobe.com/SaveForWeb/1.0/">
	<!ENTITY ns_custom "http://ns.adobe.com/GenericCustomNamespace/1.0/">
	<!ENTITY ns_adobe_xpath "http://ns.adobe.com/XPath/1.0/">
]>
<svg version="1.0" id="Слой_1" xmlns:x="&ns_extend;" xmlns:i="&ns_ai;" xmlns:graph="&ns_graphs;"
	 xmlns="http://www.w3.org/2000/svg" xmlns:xlink="http://www.w3.org/1999/xlink" x="0px" y="0px" width="32px" height="13px"
	 viewBox="0 0 32 13" enable-background="new 0 0 32 13" xml:space="preserve">
<metadata>
	<sfw  xmlns="&ns_sfw;">
		<slices></slices>
		<sliceSourceBounds  bottomLeftOrigin="true" height="16383" width="16383" x="-8175" y="-8198"></sliceSourceBounds>
	</sfw>
</metadata>
<path fill="#110C10" stroke="#FFE159" stroke-width="0.25" stroke-miterlimit="10" d="M6.6692953,0.473495h18.6712379
	c3.3153553,0,6.0029831,2.6876278,6.0029831,6.002985v0.0000119c0,3.3153572-2.6876278,6.002985-6.0029831,6.002985H6.6692953
	c-3.3153567,0-6.0029845-2.6876278-6.0029845-6.002985V6.47648C0.6663106,3.1611228,3.3539386,0.473495,6.6692953,0.473495z"/>
<path fill="#181317" d="M6.6424661,0.674866C6.5367432,1.6867747,6.5544348,2.9382977,7.2738495,3.4144616
	c0.5442233,0.3602087,1.1168871,0.0297425,2.1345663,0.0706868C10.9604568,3.5475919,12.0999107,4.4156442,12.75,4.9108911
	c2.2372341,1.7043562,2.2631826,3.9490733,3.4336624,3.9822974c0.3431892,0.0097418,0.8557129-0.168623,1.5033607-1.1384587
	c1.8659573,1.0894952,3.6180172,2.115519,4.9227772,2.9183125c0.4679184,0.2879009,0.8783092,0.5470915,1.2157955,0.7702036
	c0.8333702,0.5509415,1.2221889,0.8818884,0.9349136,0.8818884H6.6424661c-3.2171297,0-5.8251286-2.6079988-5.8251286-5.8251286
	V6.4999943C0.8173378,3.2828648,3.4253364,0.674866,6.6424661,0.674866z"/>
<path fill="#110C10" d="M6.4338121,6.2698021C6.3788619,6.7957506,6.3880572,7.4462409,6.7619796,7.6937318
	c0.2828646,0.1872215,0.580512,0.0154586,1.1094599,0.0367398c0.8066878,0.0324554,1.3989291,0.483634,1.7368188,0.7410431
	c1.1628227,0.8858538,1.1763096,2.0525665,1.7846766,2.0698347c0.1783762,0.0050631,0.4447651-0.0876436,0.7813854-0.5917244
	c0.9698486,0.5662756,1.880497,1.0995607,2.5586586,1.516819c0.2432051,0.1496391,0.4565096,0.2843561,0.6319208,0.400321
	c0.4331512,0.2863569,0.6352434,0.4583693,0.4859295,0.4583693h-9.417017c-1.6721325,0-3.0276632-1.3555307-3.0276632-3.0276632
	V9.2974653C3.4061489,7.6253328,4.7616796,6.2698021,6.4338121,6.2698021z"/>
<path fill="#181317" d="M25.9286613,8.3663549c0.0683727-0.6682081,0.0549335-1.4944358-0.4206924-1.807786
	c-0.3598022-0.2370434-0.7374096-0.0180645-1.4093361-0.0436645c-1.0247421-0.039041-1.7782269-0.6105242-2.2081127-0.9365706
	c-1.479414-1.1220641-1.4997025-2.6039848-2.2724972-2.6242726c-0.2265873-0.0059488-0.564703,0.1125283-0.9909153,0.7537229
	c-1.2334328-0.7166572-2.3915825-1.3915708-3.2541113-1.9197372c-0.3093233-0.1894131-0.5806274-0.3599528-0.8037491-0.5067762
	c-0.5509644-0.3625582-0.8081274-0.5805012-0.6184683-0.5809054l11.9614906-0.0254905
	c2.1239414-0.0045263,3.8494053,1.7135993,3.8539314,3.8375411v0.0000076
	C29.7707272,6.6363649,28.0526028,8.3618288,25.9286613,8.3663549z"/>
<polygon fill="#FFE159" points="7.2268863,7.5268445 6.480237,7.1318583 5.7315707,7.5230064 5.8764973,6.6908441 
	5.2731423,6.0996909 6.1093612,5.980372 6.4851341,5.2238712 6.8570189,5.9822907 7.6926141,6.1059008 7.0862331,6.6939487 "/>
<g>
	<g>
		<path fill="#FFE159" d="M15.9690676,10.7994156c0.5927896-0.4757462,1.2333975-0.9611588,1.9230204-1.4473515
			c0.7807865-0.5504665,1.5402107-1.0425758,2.2669334-1.4822264c-0.0706367-0.0647836-0.1655769-0.167367-0.2441292-0.3138833
			c-0.1099949-0.2051611-0.1341343-0.3962555-0.1395054-0.5057015c0.0597782,0.0978665,0.1783714,0.2631559,0.3836346,0.4010735
			c0.1771641,0.1190367,0.3465576,0.1690822,0.4533882,0.1918173c0.1406593-0.0303755,0.316061-0.0823135,0.5057011-0.1743793
			c0.2708473-0.1314902,0.4660587-0.2940116,0.5928898-0.4185114c-0.0982971-0.0262904-0.3503666-0.1078172-0.5580139-0.3487592
			c-0.1718597-0.1994147-0.2278919-0.4089384-0.2480068-0.5100603c0.1124001,0.0996804,0.2990189,0.2398167,0.5618896,0.3356805
			c0.3673496,0.133965,0.6898632,0.110815,0.8544598,0.0871902c0.1332436-0.0596714,0.289957-0.1434445,0.4533863-0.2615695
			c0.2386684-0.1725044,0.408453-0.3581309,0.52314-0.5057011c-0.334383-0.0353627-0.7327843-0.1060205-1.1683426-0.2441316
			c-0.267416-0.084795-0.5061417-0.1814771-0.7149563-0.2790074c0.3453083,0.0354209,0.7442303,0.0540867,1.1857815,0.0348763
			c0.3659554-0.0159225,0.6991405-0.055162,0.9939632-0.1046281c0.1394539-0.0684643,0.3451023-0.1908855,0.5405788-0.401073
			c0.2577496-0.2771525,0.3693981-0.5688238,0.4185104-0.7323947c-0.316227,0.1002769-0.7036133,0.1944509-1.1509056,0.2441311
			C23.1094265,4.397356,22.8398991,4.4053369,22.600338,4.399682c0.3317318-0.0873694,0.8048153-0.2518573,1.3078461-0.5754526
			c0.4790344-0.3081565,0.8138523-0.6503575,1.028841-0.9067743c0.0214462-0.1768174,0.0327644-0.4100244,0-0.6800807
			C24.9051552,1.9746983,24.8411713,1.75623,24.7800827,1.59217c-0.4504719,0.4899511-1.1241932,1.1130395-2.0576801,1.6566067
			c-1.3310452,0.7750647-2.5841484,1.0355265-3.3655262,1.1334679c-0.1059551,0.3790851-0.3905563,1.191556-1.1509056,1.8833003
			c-0.4604969,0.4189458-0.9319534,0.6448231-1.2555351,0.7672706c-0.0380898-0.0577273-0.1117859-0.1866131-0.1220646-0.3661976
			c-0.008194-0.1431599,0.0274963-0.2559056,0.0523129-0.3177547c0.0449238-0.0440955,0.0437737-0.6238952-0.1743774-0.6238952
			c-0.0101109-0.0455575-0.0325718-0.1194615-0.0863018-0.1960444c-0.0469933-0.0669799-0.0996914-0.1100488-0.136034-0.1352768
			c-0.0862579-0.0531421-0.2684708-0.1489506-0.517025-0.1590595c-0.3362761-0.0136766-0.5774946,0.1383166-0.6575737,0.1939354
			c-0.0991755,0.1037664-0.295845,0.3374066-0.3910007,0.6982727c-0.0927191,0.3516264-0.0417633,0.6446958-0.0081768,0.7839541
			C15.2631521,8.2069721,15.6161098,9.5031929,15.9690676,10.7994156z"/>
		<path fill="#E4C950" d="M15.986619,10.7994156c-0.5927896-0.4757462-1.2333984-0.9611588-1.9230204-1.4473515
			c-0.7807865-0.5504665-1.5402107-1.0425758-2.2669344-1.4822264c0.0706377-0.0647836,0.1655779-0.167367,0.2441311-0.3138833
			c0.1099949-0.2051611,0.1341333-0.3962555,0.1395044-0.5057015c-0.0597773,0.0978665-0.1783724,0.2631559-0.3836355,0.4010735
			c-0.1771631,0.1190367-0.3465557,0.1690822-0.4533863,0.1918173c-0.1406612-0.0303755-0.316062-0.0823135-0.505702-0.1743793
			c-0.2708464-0.1314902-0.4660578-0.2940116-0.5928898-0.4185114c0.0982962-0.0262904,0.3503675-0.1078172,0.558013-0.3487592
			c0.1718597-0.1994147,0.2278919-0.4089384,0.2480068-0.5100603c-0.1124001,0.0996804-0.2990179,0.2398167-0.5618896,0.3356805
			c-0.3673496,0.133965-0.6898623,0.110815-0.8544598,0.0871902C9.5011139,6.5546327,9.3444004,6.4708595,9.1809702,6.3527346
			c-0.2386665-0.1725044-0.408452-0.3581309-0.523139-0.5057011c0.3343821-0.0353627,0.7327843-0.1060205,1.1683426-0.2441316
			c0.267416-0.084795,0.5061407-0.1814771,0.7149563-0.2790074c-0.3453083,0.0354209-0.7442303,0.0540867-1.1857815,0.0348763
			C8.9893923,5.3428483,8.656209,5.3036089,8.3613853,5.2541428C8.2219324,5.1856785,8.016283,5.0632572,7.820807,4.8530698
			c-0.25775-0.2771525-0.3693991-0.5688238-0.4185104-0.7323947C7.7185221,4.220952,8.1059093,4.3151259,8.5532017,4.3648062
			C8.8462601,4.397356,9.1157866,4.4053369,9.3553486,4.399682c-0.3317318-0.0873694-0.8048143-0.2518573-1.307847-0.5754526
			C7.5684686,3.516073,7.2336502,3.173872,7.018661,2.9174552c-0.0214458-0.1768174-0.0327644-0.4100244,0-0.6800807
			C7.0505304,1.9746983,7.1145153,1.75623,7.1756034,1.59217C7.6260762,2.0821211,8.2997961,2.7052095,9.233284,3.2487767
			c1.3310452,0.7750647,2.5841484,1.0355265,3.3655262,1.1334679c0.1059551,0.3790851,0.3905563,1.191556,1.1509056,1.8833003
			c0.4604959,0.4189458,0.9319534,0.6448231,1.2555342,0.7672706c0.0380907-0.0577273,0.276701-1.427309,0.3304319-1.5038919
			c0.0469923-0.0669799,0.0996914-0.1100488,0.1360331-0.1352768c0.0862579-0.0531421,0.2684727-0.1489506,0.5170259-0.1590595
			c0.3362751-0.0136766,0.5774937,0.1383166,0.6575737,0.1939354c0.0991745,0.1037664,0.295845,0.3374066,0.3910007,0.6982727
			c0.09272,0.3516264,0.0417633,0.6446958,0.0081768,0.7839541C16.6925354,8.2069721,16.3395767,9.5031929,15.986619,10.7994156z"/>
		<circle fill="#FFE159" cx="16.0051651" cy="6.36515" r="1.2073426"/>
	</g>
	<path fill="#110C10" d="M15.6081619,7.3189397c0.0479097,0.032896,0.1814461,0.1153102,0.3712006,0.1161942
		c0.1934547,0.0009007,0.3297119-0.0834785,0.3773613-0.1161942C16.2836475,7.4158802,16.199585,7.5451083,16.125824,7.706933
		c-0.075573,0.1658015-0.118309,0.3175154-0.1433811,0.4382753c-0.0183163-0.1198568-0.0566797-0.2843313-0.1421366-0.4647756
		C15.7663603,7.5242939,15.6799307,7.4042912,15.6081619,7.3189397z"/>
	<path fill="#110C10" d="M16.4624329,6.9600425V6.7077003l0.1892548-0.2523422
		c0.0109997,0.0317993,0.0481472,0.151463-0.0046368,0.2892656C16.5955925,6.8789601,16.4922028,6.9429884,16.4624329,6.9600425z"/>
	<path fill="#110C10" d="M15.536849,6.9724617V6.7201195l-0.1892557-0.2523427
		c-0.0109987,0.0317998-0.0481453,0.151463,0.0046387,0.2892656C15.4036894,6.8913794,15.5070782,6.9554076,15.536849,6.9724617z"/>
</g>
<polygon fill="#FFE159" points="26.2075367,7.5468445 25.4608879,7.1518583 24.7122211,7.5430069 24.8571472,6.710844 
	24.2537918,6.1196909 25.0900116,6.0003719 25.4657841,5.2438712 25.8376694,6.0022907 26.6732635,6.1259007 26.0668831,6.7139487 
	"/>
</svg>
